<?xml version="1.0" standalone="no"?>
<!DOCTYPE svg PUBLIC "-//W3C//DTD SVG 20010904//EN"
 "http://www.w3.org/TR/2001/REC-SVG-20010904/DTD/svg10.dtd">
<svg version="1.0" xmlns="http://www.w3.org/2000/svg"
 width="284.000000pt" height="284.000000pt" viewBox="0 0 284.000000 284.000000"
 preserveAspectRatio="xMidYMid meet">
<metadata>
Created by potrace 1.11, written by Peter Selinger 2001-2013
</metadata>
<g transform="translate(0.000000,284.000000) scale(0.100000,-0.100000)"
fill="#000000" stroke="none">
<path d="M1363 2825 c-49 -22 -69 -55 -151 -260 -89 -220 -182 -449 -352 -866
-62 -151 -132 -323 -156 -384 -25 -60 -49 -119 -54 -130 -5 -11 -39 -94 -76
-185 -70 -174 -198 -491 -283 -699 -29 -70 -51 -141 -51 -161 0 -84 66 -144
151 -137 95 8 82 -17 349 655 483 1212 621 1557 629 1577 5 11 13 31 18 45 38
93 17 130 219 -380 102 -256 266 -670 365 -920 100 -250 206 -518 236 -595 31
-77 61 -153 68 -170 8 -16 22 -54 33 -83 41 -106 80 -138 164 -130 75 8 130
72 126 148 -1 19 -400 1017 -473 1185 -12 28 -90 218 -450 1105 -138 340 -164
388 -213 391 -9 1 -29 2 -44 3 -14 2 -39 -3 -55 -9z"/>
</g>
</svg>
