<?xml version="1.0" standalone="no"?>
<!DOCTYPE svg PUBLIC "-//W3C//DTD SVG 20010904//EN"
 "http://www.w3.org/TR/2001/REC-SVG-20010904/DTD/svg10.dtd">
<svg version="1.0" xmlns="http://www.w3.org/2000/svg"
 width="16.000000pt" height="16.000000pt" viewBox="0 0 16.000000 16.000000"
 preserveAspectRatio="xMidYMid meet">
<metadata>
Created by potrace 1.11, written by Peter Selinger 2001-2013
</metadata>
<g transform="translate(0.000000,16.000000) scale(0.003200,-0.003200)"
fill="#000000" stroke="none">
<path d="M2483 4353 c-4 -10 -28 -49 -55 -88 -61 -89 -54 -78 -150 -225 -46
-69 -86 -126 -90 -128 -5 -2 -8 -8 -8 -13 0 -11 -42 -72 -52 -77 -5 -2 -8 -10
-8 -18 0 -8 -4 -14 -10 -14 -5 0 -10 -4 -10 -8 0 -5 -472 -717 -1049 -1583
l-1050 -1574 1250 -3 c687 -1 1811 -1 2499 0 l1249 3 -77 115 c-42 63 -80 117
-84 118 -5 2 -8 7 -8 12 0 11 -222 344 -232 348 -4 2 -8 9 -8 16 0 7 -8 21
-17 32 -10 10 -24 31 -32 47 -8 15 -18 27 -23 27 -4 0 -8 4 -8 9 0 5 -169 263
-376 573 -207 309 -376 565 -377 569 -2 4 506 776 536 814 10 13 652 979 683
1028 l24 37 -1255 0 c-1187 0 -1256 -1 -1262 -17z"/>
</g>
</svg>
