<?xml version="1.0" standalone="no"?>
<!DOCTYPE svg PUBLIC "-//W3C//DTD SVG 20010904//EN"
 "http://www.w3.org/TR/2001/REC-SVG-20010904/DTD/svg10.dtd">
<svg version="1.0" xmlns="http://www.w3.org/2000/svg"
 width="700.000000pt" height="700.000000pt" viewBox="0 0 700.000000 700.000000"
 preserveAspectRatio="xMidYMid meet">
<metadata>
Created by potrace 1.14, written by Peter Selinger 2001-2017
</metadata>
<g transform="translate(0.000000,700.000000) scale(0.100000,-0.100000)"
fill="#000000" stroke="none">
<path d="M3280 6994 c-19 -2 -84 -9 -145 -14 -578 -56 -1180 -283 -1660 -625
-237 -169 -531 -446 -709 -670 -416 -521 -673 -1147 -748 -1820 -17 -154 -17
-585 0 -730 69 -588 254 -1099 567 -1570 126 -189 242 -332 410 -504 580 -595
1295 -943 2140 -1043 145 -17 576 -17 730 0 822 91 1556 447 2131 1034 203
206 348 390 487 618 274 449 432 915 499 1465 16 135 16 591 0 730 -100 846
-447 1557 -1043 2141 -555 542 -1249 874 -2029 970 -117 15 -553 27 -630 18z
m655 -831 c3 -10 402 -1024 886 -2255 483 -1230 879 -2239 879 -2243 0 -3
-165 -5 -367 -3 -355 3 -369 4 -408 25 -51 27 -99 75 -130 128 -19 31 -196
505 -347 928 l-10 27 -938 0 c-884 0 -938 -1 -945 -17 -4 -10 -81 -223 -172
-473 -91 -250 -170 -463 -175 -473 -19 -37 -83 -99 -122 -120 -40 -21 -53 -22
-414 -25 -204 -2 -372 0 -372 4 0 3 396 1012 879 2243 484 1230 883 2244 886
2254 7 16 37 17 435 17 398 0 428 -1 435 -17z"/>
<path d="M3461 5285 c-18 -66 -47 -163 -63 -215 -23 -70 -568 -1575 -613
-1692 -7 -17 31 -18 714 -18 397 0 721 2 721 5 0 2 -135 372 -301 822 -166
450 -328 904 -360 1008 -33 105 -61 194 -62 200 -2 5 -18 -44 -36 -110z"/>
</g>
</svg>
