<?xml version="1.0" encoding="utf-8"?>
<!-- Generator: Adobe Illustrator 24.1.1, SVG Export Plug-In . SVG Version: 6.00 Build 0)  -->
<svg version="1.1" id="Layer_1" xmlns="http://www.w3.org/2000/svg" xmlns:xlink="http://www.w3.org/1999/xlink" x="0px" y="0px"
	 width="1053.8px" height="283.5px" viewBox="0 0 1053.8 283.5" enable-background="new 0 0 1053.8 283.5" xml:space="preserve">
<g>
	<path fill="#003E52" d="M7.5,152.9c-3,0-5.2-1.2-6.5-3.6c-1.3-2.4-1.4-4.9-0.4-7.3L56.3,5.3C57.7,1.8,60.1,0,63.5,0
		c3.5,0,5.9,1.8,7.2,5.3l55.8,136.8c1,2.6,0.8,5.1-0.6,7.3c-1.4,2.3-3.5,3.4-6.3,3.4c-1.6,0-3-0.4-4.2-1.2c-1.2-0.8-2.2-2-2.8-3.5
		L60.8,17.6h5.9L14.6,148.2c-0.7,1.6-1.6,2.7-2.9,3.5C10.4,152.5,9,152.9,7.5,152.9z"/>
	<path fill="#003E52" d="M157.1,152.9c-2.2,0-4-0.7-5.5-2.2c-1.4-1.4-2.2-3.3-2.2-5.5V7.6c0-2.2,0.7-4,2.2-5.5
		c1.4-1.4,3.3-2.2,5.5-2.2c2.3,0,4.3,0.9,5.9,2.7l93.6,122.9V7.6c0-2.2,0.7-4,2.2-5.5c1.4-1.4,3.3-2.2,5.5-2.2
		c2.1,0,3.9,0.7,5.4,2.2c1.5,1.4,2.3,3.3,2.3,5.5v137.6c0,2.2-0.8,4-2.3,5.5c-1.5,1.4-3.3,2.2-5.4,2.2c-1,0-2.1-0.2-3.1-0.6
		c-1-0.4-1.9-1-2.5-2l-93.8-123v117.9c0,2.2-0.8,4-2.2,5.5C161,152.2,159.2,152.9,157.1,152.9z"/>
	<path fill="#003E52" d="M318.6,152.9c-2.2,0-4-0.7-5.5-2.2c-1.4-1.4-2.2-3.3-2.2-5.5V7.6c0-2.2,0.7-4,2.2-5.5
		c1.4-1.4,3.3-2.2,5.5-2.2h35.2c11.2,0,21.5,1.9,30.8,5.6c9.3,3.7,17.4,9,24.2,15.9c6.8,6.9,12,14.9,15.8,24.2
		c3.7,9.3,5.6,19.5,5.6,30.7c0,11.2-1.9,21.5-5.6,30.8c-3.7,9.3-9,17.4-15.8,24.3c-6.8,6.9-14.8,12.1-24.2,15.9
		c-9.3,3.7-19.6,5.6-30.8,5.6H318.6z M326.3,139.2h27.6c12,0,22.6-2.7,31.8-8.1c9.2-5.4,16.4-12.9,21.6-22.3
		c5.2-9.5,7.8-20.3,7.8-32.4c0-12.1-2.6-22.9-7.8-32.4c-5.2-9.5-12.4-16.9-21.6-22.2c-9.2-5.4-19.8-8-31.8-8h-27.6V139.2z"/>
	<path fill="#003E52" d="M497.9,152.9c-2.1,0-3.9-0.8-5.4-2.2c-1.5-1.5-2.3-3.3-2.3-5.4V96.3l-53.2-84.4c-1.3-2-1.8-3.8-1.5-5.7
		c0.3-1.8,1.1-3.3,2.4-4.5c1.3-1.2,2.9-1.8,4.9-1.8c1.6,0,2.8,0.3,3.8,1c1,0.7,1.9,1.6,2.6,2.7l52.9,85.2H494l52.7-84.8
		c0.9-1.4,1.9-2.5,3-3.1c1.1-0.7,2.4-1,4-1c1.8,0,3.4,0.6,4.6,1.9c1.2,1.2,2,2.8,2.2,4.6c0.2,1.8-0.3,3.7-1.5,5.5l-53.4,84.4v48.9
		c0,2.1-0.8,3.9-2.3,5.4S500,152.9,497.9,152.9z"/>
	<path fill="#003E52" d="M645.9,152.9c-2.1,0-3.9-0.8-5.4-2.2c-1.5-1.5-2.3-3.3-2.3-5.4V7.6c0-2.1,0.8-3.9,2.3-5.4
		c1.5-1.5,3.3-2.2,5.4-2.2s3.9,0.8,5.4,2.2c1.5,1.5,2.2,3.3,2.2,5.4v66.6L725,2.7c1-1,2-1.8,2.9-2.2c0.9-0.4,2-0.6,3.1-0.6
		c2.3,0,4.1,0.7,5.3,2.2c1.2,1.4,1.7,3.2,1.7,5.2c-0.1,2-0.9,3.9-2.4,5.8L682,66.8l54.2,74c1.2,1.7,1.7,3.5,1.5,5.4
		c-0.2,1.9-0.9,3.5-2.3,4.8c-1.3,1.3-2.9,2-4.7,2c-2.9,0-5-1.1-6.5-3.3l-53.2-72l-17.4,17.6v50.1c0,2.1-0.8,3.9-2.2,5.4
		C649.8,152.1,648,152.9,645.9,152.9z"/>
	<path fill="#003E52" d="M774.2,152.9c-2.2,0-4-0.7-5.5-2.2c-1.4-1.4-2.2-3.3-2.2-5.5V7.6c0-2.2,0.7-4,2.2-5.5
		c1.4-1.4,3.3-2.2,5.5-2.2c2.2,0,4,0.7,5.5,2.2c1.4,1.4,2.2,3.3,2.2,5.5v137.6c0,2.2-0.7,4-2.2,5.5
		C778.2,152.2,776.4,152.9,774.2,152.9z"/>
	<path fill="#003E52" d="M828.6,152.9c-2.2,0-4-0.7-5.5-2.2c-1.4-1.4-2.2-3.3-2.2-5.5V7.6c0-2.2,0.7-4,2.2-5.5
		c1.4-1.4,3.3-2.2,5.5-2.2h36.6c9.5,0,18,2,25.5,6s13.3,9.5,17.5,16.6c4.2,7.1,6.4,15.3,6.4,24.6c0,8.9-2.1,16.8-6.4,23.7
		c-4.2,6.9-10.1,12.3-17.5,16.3S874.7,93,865.2,93h-29v52.3c0,2.2-0.7,4-2.2,5.5C832.6,152.2,830.8,152.9,828.6,152.9z M836.2,78.3
		h29c6.7,0,12.6-1.3,17.7-4c5.1-2.7,9.2-6.4,12.2-11.1c3-4.7,4.5-10,4.5-16.1c0-6.4-1.5-12-4.5-16.9c-3-4.9-7.1-8.7-12.2-11.5
		c-5.2-2.7-11.1-4.1-17.7-4.1h-29V78.3z M910.4,152.9c-1.7,0-3-0.3-4-1c-1-0.7-1.9-1.6-2.6-2.9l-37.6-59.9l15.3-3.9l35,56
		c2,3.1,2.3,5.9,1.1,8.2C916.3,151.7,913.9,152.9,910.4,152.9z"/>
	<path fill="#003E52" d="M949.6,152.9c-2.1,0-3.9-0.8-5.4-2.2c-1.5-1.5-2.2-3.3-2.2-5.4V7.6c0-2.1,0.7-3.9,2.2-5.4
		c1.5-1.5,3.3-2.2,5.4-2.2c2.1,0,3.9,0.8,5.4,2.2c1.5,1.5,2.2,3.3,2.2,5.4v66.6l71.5-71.5c1-1,2-1.8,2.9-2.2c0.9-0.4,2-0.6,3.1-0.6
		c2.4,0,4.1,0.7,5.3,2.2c1.2,1.4,1.7,3.2,1.7,5.2c-0.1,2-0.9,3.9-2.4,5.8l-53.6,53.6l54.2,74c1.2,1.7,1.7,3.5,1.5,5.4
		c-0.2,1.9-0.9,3.5-2.2,4.8c-1.3,1.3-2.9,2-4.7,2c-2.9,0-5-1.1-6.5-3.3l-53.2-72l-17.4,17.6v50.1c0,2.1-0.8,3.9-2.2,5.4
		C953.5,152.1,951.7,152.9,949.6,152.9z"/>
</g>
<g>
	<path fill="#6E655D" d="M3.4,268.2c-0.7,0-1.4-0.2-1.8-0.7c-0.5-0.5-0.7-1.1-0.7-1.8v-45.9c0-0.7,0.2-1.4,0.7-1.8s1.1-0.7,1.8-0.7
		h11.7c3.7,0,7.2,0.6,10.3,1.9c3.1,1.2,5.8,3,8.1,5.3c2.3,2.3,4,5,5.3,8.1c1.2,3.1,1.9,6.5,1.9,10.2s-0.6,7.2-1.9,10.3
		c-1.2,3.1-3,5.8-5.3,8.1c-2.3,2.3-4.9,4-8.1,5.3c-3.1,1.2-6.5,1.9-10.3,1.9H3.4z M5.9,263.6h9.2c4,0,7.5-0.9,10.6-2.7
		c3.1-1.8,5.5-4.3,7.2-7.4c1.7-3.2,2.6-6.8,2.6-10.8s-0.9-7.6-2.6-10.8c-1.7-3.1-4.1-5.6-7.2-7.4c-3.1-1.8-6.6-2.7-10.6-2.7H5.9
		V263.6z"/>
	<path fill="#6E655D" d="M80.3,268.5c-3.5,0-6.6-0.8-9.4-2.3c-2.7-1.5-4.8-3.7-6.4-6.4c-1.5-2.7-2.3-5.9-2.3-9.4
		c0-3.6,0.7-6.7,2.2-9.4c1.5-2.7,3.5-4.9,6-6.4c2.6-1.6,5.5-2.3,8.9-2.3c3.3,0,6.2,0.7,8.6,2.2c2.5,1.5,4.4,3.6,5.7,6.2
		c1.3,2.7,2,5.7,2,9.1c0,0.7-0.2,1.2-0.7,1.7c-0.4,0.4-1,0.6-1.7,0.6H65.7v-4.2h28.3l-2.8,2c0-2.5-0.4-4.8-1.4-6.8
		c-1-2-2.3-3.6-4.1-4.7c-1.8-1.1-3.9-1.7-6.3-1.7c-2.5,0-4.7,0.6-6.5,1.8c-1.9,1.2-3.3,2.8-4.3,4.9c-1,2.1-1.5,4.4-1.5,7.1
		c0,2.7,0.6,5,1.7,7c1.2,2,2.7,3.7,4.7,4.8c2,1.2,4.3,1.8,6.9,1.8c1.6,0,3.1-0.3,4.7-0.8c1.6-0.5,2.9-1.2,3.8-2.1
		c0.5-0.4,1-0.6,1.6-0.6c0.6,0,1.1,0.1,1.6,0.5c0.6,0.5,0.9,1.1,0.9,1.7c0,0.6-0.2,1.1-0.7,1.6c-1.4,1.2-3.3,2.2-5.5,3
		C84.5,268.1,82.4,268.5,80.3,268.5z"/>
	<path fill="#6E655D" d="M128.8,268.2c-1,0-1.8-0.6-2.3-1.7l-14.5-30.7c-0.3-0.6-0.3-1.1-0.1-1.7c0.2-0.6,0.7-1,1.3-1.3
		c0.6-0.3,1.2-0.4,1.8-0.1s1,0.6,1.3,1.2l13.9,30.1h-2.7l13.7-30.1c0.3-0.6,0.7-1,1.3-1.2s1.2-0.2,1.9,0.1c0.6,0.3,1,0.8,1.2,1.3
		c0.2,0.6,0.2,1.1-0.1,1.7l-14.3,30.8C130.7,267.6,129.9,268.2,128.8,268.2z"/>
	<path fill="#6E655D" d="M181.2,268.5c-3.5,0-6.6-0.8-9.4-2.3c-2.7-1.5-4.8-3.7-6.4-6.4c-1.5-2.7-2.3-5.9-2.3-9.4
		c0-3.6,0.7-6.7,2.2-9.4c1.5-2.7,3.5-4.9,6-6.4c2.6-1.6,5.5-2.3,8.9-2.3c3.3,0,6.2,0.7,8.6,2.2c2.5,1.5,4.4,3.6,5.7,6.2
		c1.3,2.7,2,5.7,2,9.1c0,0.7-0.2,1.2-0.7,1.7c-0.4,0.4-1,0.6-1.7,0.6h-27.7v-4.2h28.3l-2.8,2c0-2.5-0.4-4.8-1.4-6.8
		c-1-2-2.3-3.6-4.1-4.7c-1.8-1.1-3.9-1.7-6.3-1.7c-2.5,0-4.7,0.6-6.5,1.8c-1.9,1.2-3.3,2.8-4.3,4.9c-1,2.1-1.5,4.4-1.5,7.1
		c0,2.7,0.6,5,1.7,7c1.2,2,2.7,3.7,4.7,4.8c2,1.2,4.3,1.8,6.9,1.8c1.6,0,3.1-0.3,4.7-0.8c1.6-0.5,2.9-1.2,3.8-2.1
		c0.5-0.4,1-0.6,1.6-0.6c0.6,0,1.1,0.1,1.6,0.5c0.6,0.5,0.9,1.1,0.9,1.7c0,0.6-0.2,1.1-0.7,1.6c-1.4,1.2-3.3,2.2-5.5,3
		C185.4,268.1,183.3,268.5,181.2,268.5z"/>
	<path fill="#6E655D" d="M226.4,268.2c-1.7,0-3.3-0.5-4.7-1.4c-1.4-1-2.4-2.3-3.2-4c-0.8-1.7-1.1-3.7-1.1-5.9v-37.2
		c0-0.7,0.2-1.3,0.7-1.8c0.5-0.5,1.1-0.7,1.8-0.7s1.3,0.2,1.8,0.7c0.5,0.5,0.7,1.1,0.7,1.8v37.2c0,1.9,0.4,3.4,1.1,4.6
		c0.8,1.2,1.7,1.8,2.9,1.8h1.6c0.7,0,1.2,0.2,1.6,0.7c0.4,0.5,0.6,1.1,0.6,1.8s-0.3,1.3-0.8,1.8c-0.5,0.5-1.3,0.7-2.1,0.7H226.4z"/>
	<path fill="#6E655D" d="M265.1,268.5c-3.5,0-6.6-0.8-9.3-2.3c-2.7-1.6-4.9-3.7-6.5-6.5c-1.6-2.7-2.4-5.9-2.4-9.3
		c0-3.5,0.8-6.7,2.4-9.4c1.6-2.7,3.7-4.9,6.5-6.5c2.7-1.6,5.9-2.3,9.3-2.3c3.5,0,6.6,0.8,9.3,2.3c2.7,1.6,4.9,3.7,6.4,6.5
		c1.6,2.7,2.4,5.9,2.4,9.4c0,3.5-0.8,6.6-2.4,9.3c-1.6,2.7-3.7,4.9-6.5,6.5C271.7,267.7,268.6,268.5,265.1,268.5z M265.1,264
		c2.5,0,4.8-0.6,6.8-1.8c2-1.2,3.6-2.8,4.7-4.8c1.1-2,1.7-4.4,1.7-7c0-2.6-0.6-4.9-1.7-7c-1.1-2.1-2.7-3.7-4.7-4.9
		c-2-1.2-4.3-1.8-6.8-1.8c-2.5,0-4.8,0.6-6.8,1.8c-2,1.2-3.6,2.8-4.7,4.9c-1.2,2.1-1.7,4.4-1.7,7c0,2.6,0.6,4.9,1.7,7
		s2.7,3.7,4.7,4.8C260.3,263.4,262.6,264,265.1,264z"/>
	<path fill="#6E655D" d="M309.3,283.5c-0.8,0-1.4-0.2-1.9-0.7c-0.5-0.5-0.7-1.1-0.7-1.9v-30.8c0-3.4,0.9-6.4,2.4-9.2
		c1.6-2.7,3.7-4.9,6.5-6.4c2.7-1.6,5.8-2.3,9.2-2.3c3.5,0,6.6,0.8,9.3,2.4c2.7,1.6,4.9,3.8,6.5,6.5c1.6,2.7,2.4,5.9,2.4,9.3
		c0,3.4-0.8,6.5-2.3,9.3c-1.5,2.7-3.6,4.9-6.3,6.5c-2.7,1.6-5.7,2.4-9,2.4c-2.9,0-5.6-0.6-7.9-1.9c-2.4-1.2-4.3-2.9-5.7-4.9v19.2
		c0,0.8-0.2,1.4-0.7,1.9C310.6,283.2,310,283.5,309.3,283.5z M324.8,264c2.5,0,4.8-0.6,6.8-1.8c2-1.2,3.6-2.8,4.7-4.9
		c1.2-2.1,1.7-4.4,1.7-7c0-2.6-0.6-4.9-1.7-7c-1.2-2-2.7-3.7-4.7-4.9c-2-1.2-4.3-1.8-6.8-1.8c-2.5,0-4.7,0.6-6.7,1.8
		s-3.6,2.8-4.7,4.9c-1.1,2-1.7,4.4-1.7,7c0,2.6,0.6,4.9,1.7,7c1.1,2.1,2.7,3.7,4.7,4.9C320.1,263.4,322.3,264,324.8,264z"/>
	<path fill="#6E655D" d="M382.7,268.5c-3.5,0-6.6-0.8-9.4-2.3c-2.7-1.5-4.8-3.7-6.4-6.4c-1.5-2.7-2.3-5.9-2.3-9.4
		c0-3.6,0.7-6.7,2.2-9.4c1.5-2.7,3.5-4.9,6-6.4c2.6-1.6,5.5-2.3,8.9-2.3c3.3,0,6.2,0.7,8.6,2.2c2.5,1.5,4.4,3.6,5.7,6.2
		c1.3,2.7,2,5.7,2,9.1c0,0.7-0.2,1.2-0.7,1.7c-0.4,0.4-1,0.6-1.7,0.6H368v-4.2h28.3l-2.8,2c0-2.5-0.4-4.8-1.4-6.8
		c-1-2-2.3-3.6-4.1-4.7c-1.8-1.1-3.9-1.7-6.3-1.7c-2.5,0-4.7,0.6-6.5,1.8c-1.9,1.2-3.3,2.8-4.3,4.9c-1,2.1-1.5,4.4-1.5,7.1
		c0,2.7,0.6,5,1.7,7c1.2,2,2.7,3.7,4.7,4.8c2,1.2,4.3,1.8,6.9,1.8c1.6,0,3.1-0.3,4.7-0.8c1.6-0.5,2.9-1.2,3.8-2.1
		c0.5-0.4,1-0.6,1.6-0.6c0.6,0,1.1,0.1,1.6,0.5c0.6,0.5,0.9,1.1,0.9,1.7c0,0.6-0.2,1.1-0.7,1.6c-1.4,1.2-3.3,2.2-5.5,3
		C386.8,268.1,384.7,268.5,382.7,268.5z"/>
	<path fill="#6E655D" d="M422.7,268.2c-0.8,0-1.4-0.2-1.8-0.6c-0.4-0.4-0.7-1-0.7-1.8V235c0-0.8,0.2-1.4,0.7-1.8
		c0.4-0.4,1-0.7,1.8-0.7c0.8,0,1.4,0.2,1.8,0.7c0.4,0.4,0.7,1,0.7,1.8v30.7c0,0.8-0.2,1.4-0.7,1.8
		C424.1,268,423.5,268.2,422.7,268.2z M422.3,246.2c0.1-2.7,0.8-5.1,2.1-7.2c1.3-2.1,3-3.8,5-5c2.1-1.2,4.4-1.8,6.9-1.8
		c2,0,3.5,0.3,4.6,0.8c1.1,0.6,1.5,1.4,1.2,2.5c-0.2,0.7-0.5,1.1-0.9,1.3c-0.4,0.2-0.9,0.3-1.5,0.3c-0.6,0-1.2-0.1-2-0.1
		c-2.4-0.2-4.6,0-6.5,0.8c-1.9,0.7-3.4,1.8-4.5,3.3c-1.1,1.5-1.7,3.2-1.7,5.3H422.3z"/>
</g>
<g>
	<path fill="#6E655D" d="M539.1,273.3c-0.9,0-1.6-0.4-2.1-1.1c-0.5-0.7-0.6-1.6-0.2-2.5l20.5-51.1c0.2-0.5,0.5-0.9,0.9-1.1
		c0.4-0.3,0.9-0.4,1.4-0.4c1,0,1.7,0.4,2.1,1.1c0.4,0.8,0.5,1.6,0.2,2.4l-20.5,51.2c-0.2,0.5-0.5,0.9-1,1.1
		C540,273.2,539.6,273.3,539.1,273.3z"/>
</g>
<g>
	<path fill="#6E655D" d="M666.4,268.2c-0.7,0-1.4-0.2-1.8-0.7c-0.5-0.5-0.7-1.1-0.7-1.8v-45.9c0-0.7,0.2-1.4,0.7-1.8
		c0.5-0.5,1.1-0.7,1.8-0.7h11.7c3.7,0,7.2,0.6,10.3,1.9c3.1,1.2,5.8,3,8.1,5.3c2.3,2.3,4,5,5.3,8.1c1.2,3.1,1.9,6.5,1.9,10.2
		s-0.6,7.2-1.9,10.3c-1.2,3.1-3,5.8-5.3,8.1c-2.3,2.3-4.9,4-8.1,5.3c-3.1,1.2-6.5,1.9-10.3,1.9H666.4z M668.9,263.6h9.2
		c4,0,7.5-0.9,10.6-2.7c3.1-1.8,5.5-4.3,7.2-7.4c1.7-3.2,2.6-6.8,2.6-10.8s-0.9-7.6-2.6-10.8c-1.7-3.1-4.1-5.6-7.2-7.4
		c-3.1-1.8-6.6-2.7-10.6-2.7h-9.2V263.6z"/>
	<path fill="#6E655D" d="M743.3,268.5c-3.5,0-6.6-0.8-9.4-2.3c-2.7-1.5-4.8-3.7-6.4-6.4c-1.5-2.7-2.3-5.9-2.3-9.4
		c0-3.6,0.7-6.7,2.2-9.4c1.5-2.7,3.5-4.9,6-6.4c2.6-1.6,5.5-2.3,8.9-2.3c3.3,0,6.2,0.7,8.6,2.2c2.5,1.5,4.4,3.6,5.7,6.2
		c1.3,2.7,2,5.7,2,9.1c0,0.7-0.2,1.2-0.7,1.7c-0.4,0.4-1,0.6-1.7,0.6h-27.7v-4.2h28.3l-2.8,2c0-2.5-0.4-4.8-1.4-6.8
		c-1-2-2.3-3.6-4.1-4.7c-1.8-1.1-3.9-1.7-6.3-1.7c-2.5,0-4.7,0.6-6.5,1.8c-1.9,1.2-3.3,2.8-4.3,4.9c-1,2.1-1.5,4.4-1.5,7.1
		c0,2.7,0.6,5,1.7,7c1.1,2,2.7,3.7,4.7,4.8c2,1.2,4.3,1.8,6.9,1.8c1.6,0,3.1-0.3,4.7-0.8c1.6-0.5,2.9-1.2,3.8-2.1
		c0.5-0.4,1-0.6,1.6-0.6c0.6,0,1.1,0.1,1.6,0.5c0.6,0.5,0.9,1.1,0.9,1.7c0,0.6-0.2,1.1-0.8,1.6c-1.4,1.2-3.3,2.2-5.5,3
		C747.5,268.1,745.4,268.5,743.3,268.5z"/>
	<path fill="#6E655D" d="M793.3,268.5c-2.6,0-5.1-0.4-7.6-1.3c-2.5-0.9-4.6-2.2-6.1-3.9c-0.5-0.5-0.7-1.1-0.6-1.8
		c0.1-0.7,0.4-1.2,1-1.7c0.6-0.4,1.2-0.6,1.9-0.5c0.6,0.1,1.2,0.4,1.6,0.8c1,1.2,2.4,2.2,4.1,2.8c1.7,0.6,3.6,1,5.7,1
		c3.2,0,5.6-0.6,7-1.7c1.4-1.1,2.2-2.4,2.2-4c0-1.6-0.7-2.9-2.2-3.9c-1.5-1-3.9-1.8-7.3-2.4c-4.4-0.7-7.6-1.9-9.7-3.7
		c-2-1.7-3.1-3.8-3.1-6.2c0-2.2,0.6-4.1,1.8-5.5c1.2-1.5,2.7-2.6,4.7-3.3s4.1-1.1,6.5-1.1c2.9,0,5.4,0.5,7.5,1.5
		c2.1,1,3.8,2.4,5.1,4c0.4,0.6,0.6,1.2,0.5,1.8c-0.1,0.6-0.4,1.1-1,1.5c-0.5,0.3-1.1,0.4-1.8,0.3c-0.7-0.1-1.3-0.4-1.7-0.9
		c-1.1-1.3-2.3-2.2-3.8-2.8c-1.4-0.6-3.1-0.9-5-0.9c-2.4,0-4.3,0.5-5.7,1.5c-1.4,1-2.2,2.2-2.2,3.7c0,1,0.3,1.9,0.8,2.6
		s1.5,1.4,2.8,2c1.3,0.6,3.2,1,5.6,1.4c3.3,0.5,5.8,1.3,7.7,2.3c1.9,1,3.2,2.2,4,3.6c0.8,1.4,1.2,2.9,1.2,4.5c0,2-0.6,3.8-1.8,5.4
		s-2.8,2.8-5,3.6C798.5,268.1,796.1,268.5,793.3,268.5z"/>
	<path fill="#6E655D" d="M833.3,225.7c-1,0-1.8-0.4-2.5-1c-0.7-0.7-1-1.5-1-2.5c0-1.1,0.4-2,1.1-2.6c0.7-0.6,1.6-0.9,2.5-0.9
		c0.9,0,1.7,0.3,2.4,0.9s1.1,1.5,1.1,2.6c0,1-0.4,1.8-1,2.5C835.1,225.4,834.3,225.7,833.3,225.7z M833.3,268.2
		c-0.8,0-1.4-0.2-1.9-0.7c-0.5-0.5-0.7-1.1-0.7-1.9V235c0-0.8,0.2-1.4,0.7-1.9c0.5-0.5,1.1-0.7,1.9-0.7c0.7,0,1.3,0.2,1.8,0.7
		c0.5,0.5,0.7,1.1,0.7,1.9v30.6c0,0.8-0.2,1.4-0.7,1.9C834.7,268,834.1,268.2,833.3,268.2z"/>
	<path fill="#6E655D" d="M878,268.5c-3.4,0-6.5-0.8-9.1-2.3c-2.7-1.5-4.7-3.7-6.2-6.4c-1.5-2.7-2.3-5.9-2.3-9.4
		c0-3.6,0.8-6.7,2.4-9.5s3.7-4.9,6.5-6.4s5.9-2.3,9.3-2.3c3.5,0,6.6,0.8,9.4,2.3c2.7,1.5,4.8,3.7,6.4,6.4s2.3,5.9,2.4,9.5l-2.9,1.6
		c0,3.2-0.7,6.1-2,8.6c-1.4,2.5-3.2,4.5-5.6,5.9C883.7,267.8,881,268.5,878,268.5z M878.6,282.3c-3.4,0-6.5-0.6-9.1-1.9
		c-2.6-1.3-4.8-3-6.5-5.3c-0.5-0.5-0.7-1.1-0.6-1.7c0.1-0.6,0.4-1.1,0.9-1.5c0.6-0.4,1.2-0.5,1.9-0.4c0.7,0.1,1.2,0.5,1.6,1
		c1.3,1.6,2.9,2.8,4.9,3.8c2,1,4.3,1.4,6.9,1.4c2.4,0,4.6-0.6,6.6-1.8c2-1.2,3.5-2.8,4.7-5c1.2-2.1,1.7-4.6,1.7-7.5v-9.9l1.9-3.8
		l3.1,0.6v13.3c0,3.5-0.8,6.7-2.4,9.5c-1.6,2.8-3.7,5-6.4,6.7C885.2,281.5,882.1,282.3,878.6,282.3z M878.5,264
		c2.6,0,4.8-0.6,6.8-1.7c2-1.2,3.5-2.8,4.7-4.8c1.1-2,1.7-4.4,1.7-7c0-2.7-0.6-5-1.7-7.1c-1.1-2.1-2.7-3.7-4.7-4.8
		c-2-1.2-4.3-1.7-6.8-1.7s-4.8,0.6-6.9,1.7c-2,1.2-3.6,2.8-4.7,4.8c-1.1,2.1-1.7,4.4-1.7,7.1c0,2.7,0.6,5,1.7,7
		c1.1,2,2.7,3.6,4.7,4.8C873.6,263.4,875.9,264,878.5,264z"/>
	<path fill="#6E655D" d="M922.7,268.2c-0.8,0-1.4-0.2-1.9-0.7c-0.5-0.5-0.7-1.1-0.7-1.8V235c0-0.8,0.2-1.4,0.7-1.9
		c0.5-0.5,1.1-0.7,1.9-0.7c0.7,0,1.3,0.2,1.8,0.7c0.5,0.5,0.7,1.1,0.7,1.9v30.7c0,0.7-0.2,1.3-0.7,1.8
		C924,268,923.4,268.2,922.7,268.2z M950.7,268.2c-0.7,0-1.4-0.2-1.8-0.7c-0.5-0.5-0.7-1.1-0.7-1.8v-17c0-2.7-0.5-4.9-1.5-6.7
		c-1-1.7-2.4-3-4.2-3.9c-1.8-0.9-3.8-1.3-6-1.3c-2.1,0-4.1,0.4-5.8,1.2c-1.7,0.8-3.1,2-4.1,3.4c-1,1.4-1.5,3.1-1.5,4.9h-3.6
		c0.1-2.7,0.8-5.2,2.2-7.3c1.4-2.2,3.2-3.8,5.5-5.1c2.3-1.2,4.9-1.9,7.7-1.9c3.1,0,5.9,0.6,8.3,1.9c2.4,1.3,4.4,3.2,5.8,5.6
		s2.1,5.5,2.1,9.1v17c0,0.7-0.2,1.3-0.7,1.8C952,268,951.4,268.2,950.7,268.2z"/>
	<path fill="#6E655D" d="M994.2,268.5c-3.5,0-6.6-0.8-9.4-2.3c-2.7-1.5-4.8-3.7-6.4-6.4c-1.5-2.7-2.3-5.9-2.3-9.4
		c0-3.6,0.7-6.7,2.2-9.4c1.5-2.7,3.5-4.9,6-6.4c2.6-1.6,5.5-2.3,8.9-2.3c3.3,0,6.2,0.7,8.6,2.2c2.5,1.5,4.4,3.6,5.7,6.2
		c1.3,2.7,2,5.7,2,9.1c0,0.7-0.2,1.2-0.7,1.7c-0.4,0.4-1,0.6-1.7,0.6h-27.7v-4.2h28.3l-2.8,2c0-2.5-0.4-4.8-1.4-6.8
		c-1-2-2.3-3.6-4.1-4.7c-1.8-1.1-3.9-1.7-6.3-1.7c-2.5,0-4.7,0.6-6.5,1.8c-1.9,1.2-3.3,2.8-4.3,4.9c-1,2.1-1.5,4.4-1.5,7.1
		c0,2.7,0.6,5,1.7,7c1.1,2,2.7,3.7,4.7,4.8c2,1.2,4.3,1.8,6.9,1.8c1.6,0,3.1-0.3,4.7-0.8c1.6-0.5,2.9-1.2,3.8-2.1
		c0.5-0.4,1-0.6,1.6-0.6c0.6,0,1.1,0.1,1.6,0.5c0.6,0.5,0.9,1.1,0.9,1.7c0,0.6-0.2,1.1-0.8,1.6c-1.4,1.2-3.3,2.2-5.5,3
		C998.4,268.1,996.2,268.5,994.2,268.5z"/>
	<path fill="#6E655D" d="M1034.2,268.2c-0.8,0-1.4-0.2-1.8-0.6c-0.4-0.4-0.7-1-0.7-1.8V235c0-0.8,0.2-1.4,0.7-1.8
		c0.4-0.4,1-0.7,1.8-0.7c0.8,0,1.4,0.2,1.8,0.7c0.4,0.4,0.7,1,0.7,1.8v30.7c0,0.8-0.2,1.4-0.7,1.8
		C1035.6,268,1035,268.2,1034.2,268.2z M1033.8,246.2c0.1-2.7,0.8-5.1,2.1-7.2c1.3-2.1,3-3.8,5-5c2.1-1.2,4.4-1.8,6.9-1.8
		c2,0,3.5,0.3,4.6,0.8c1.1,0.6,1.5,1.4,1.2,2.5c-0.2,0.7-0.5,1.1-0.9,1.3c-0.4,0.2-0.9,0.3-1.5,0.3c-0.6,0-1.2-0.1-2-0.1
		c-2.4-0.2-4.6,0-6.5,0.8c-1.9,0.7-3.4,1.8-4.5,3.3c-1.1,1.5-1.7,3.2-1.7,5.3H1033.8z"/>
</g>
</svg>
