<?xml version="1.0" encoding="utf-8"?>
<!-- Generator: Adobe Illustrator 24.1.1, SVG Export Plug-In . SVG Version: 6.00 Build 0)  -->
<svg version="1.1" id="Layer_1" xmlns="http://www.w3.org/2000/svg" xmlns:xlink="http://www.w3.org/1999/xlink" x="0px" y="0px"
	 width="235.9px" height="283.5px" viewBox="0 0 235.9 283.5" enable-background="new 0 0 235.9 283.5" xml:space="preserve">
<g>
	<path fill="#003E52" d="M14,283.5c-5.6,0-9.6-2.2-12-6.7c-2.4-4.5-2.7-9-0.7-13.6L104.4,9.8C107,3.3,111.5,0,117.8,0
		c6.5,0,11,3.3,13.4,9.8l103.4,253.7c1.9,4.8,1.6,9.4-1.1,13.6c-2.7,4.2-6.5,6.4-11.6,6.4c-2.9,0-5.5-0.7-7.8-2.2
		c-2.3-1.5-4.1-3.6-5.3-6.5L112.7,32.7h10.9L27.1,274.8c-1.2,2.9-3,5.1-5.4,6.5C19.2,282.7,16.7,283.5,14,283.5z"/>
</g>
</svg>
