<svg xmlns="http://www.w3.org/2000/svg" width="1053.8" height="283.5" viewBox="0 0 1053.8 283.5"><g fill="#003E52"><path d="M7.5 152.9c-3 0-5.2-1.2-6.5-3.6-1.3-2.4-1.4-4.9-.4-7.3L56.3 5.3C57.7 1.8 60.1 0 63.5 0c3.5 0 5.9 1.8 7.2 5.3l55.8 136.8c1 2.6.8 5.1-.6 7.3-1.4 2.3-3.5 3.4-6.3 3.4-1.6 0-3-.4-4.2-1.2-1.2-.8-2.2-2-2.8-3.5L60.8 17.6h5.9L14.6 148.2c-.7 1.6-1.6 2.7-2.9 3.5-1.3.8-2.7 1.2-4.2 1.2zM157.1 152.9c-2.2 0-4-.7-5.5-2.2-1.4-1.4-2.2-3.3-2.2-5.5V7.6c0-2.2.7-4 2.2-5.5 1.4-1.4 3.3-2.2 5.5-2.2 2.3 0 4.3.9 5.9 2.7l93.6 122.9V7.6c0-2.2.7-4 2.2-5.5 1.4-1.4 3.3-2.2 5.5-2.2 2.1 0 3.9.7 5.4 2.2 1.5 1.4 2.3 3.3 2.3 5.5v137.6c0 2.2-.8 4-2.3 5.5-1.5 1.4-3.3 2.2-5.4 2.2-1 0-2.1-.2-3.1-.6-1-.4-1.9-1-2.5-2l-93.8-123v117.9c0 2.2-.8 4-2.2 5.5-1.7 1.5-3.5 2.2-5.6 2.2zM318.6 152.9c-2.2 0-4-.7-5.5-2.2-1.4-1.4-2.2-3.3-2.2-5.5V7.6c0-2.2.7-4 2.2-5.5 1.4-1.4 3.3-2.2 5.5-2.2h35.2c11.2 0 21.5 1.9 30.8 5.6 9.3 3.7 17.4 9 24.2 15.9 6.8 6.9 12 14.9 15.8 24.2 3.7 9.3 5.6 19.5 5.6 30.7s-1.9 21.5-5.6 30.8c-3.7 9.3-9 17.4-15.8 24.3-6.8 6.9-14.8 12.1-24.2 15.9-9.3 3.7-19.6 5.6-30.8 5.6h-35.2zm7.7-13.7h27.6c12 0 22.6-2.7 31.8-8.1 9.2-5.4 16.4-12.9 21.6-22.3 5.2-9.5 7.8-20.3 7.8-32.4 0-12.1-2.6-22.9-7.8-32.4-5.2-9.5-12.4-16.9-21.6-22.2-9.2-5.4-19.8-8-31.8-8h-27.6v125.4zM497.9 152.9c-2.1 0-3.9-.8-5.4-2.2-1.5-1.5-2.3-3.3-2.3-5.4v-49L437 11.9c-1.3-2-1.8-3.8-1.5-5.7.3-1.8 1.1-3.3 2.4-4.5 1.3-1.2 2.9-1.8 4.9-1.8 1.6 0 2.8.3 3.8 1s1.9 1.6 2.6 2.7l52.9 85.2H494L546.7 4c.9-1.4 1.9-2.5 3-3.1 1.1-.7 2.4-1 4-1 1.8 0 3.4.6 4.6 1.9 1.2 1.2 2 2.8 2.2 4.6.2 1.8-.3 3.7-1.5 5.5l-53.4 84.4v48.9c0 2.1-.8 3.9-2.3 5.4s-3.3 2.3-5.4 2.3zM645.9 152.9c-2.1 0-3.9-.8-5.4-2.2-1.5-1.5-2.3-3.3-2.3-5.4V7.6c0-2.1.8-3.9 2.3-5.4C642 .7 643.8 0 645.9 0s3.9.8 5.4 2.2c1.5 1.5 2.2 3.3 2.2 5.4v66.6L725 2.7c1-1 2-1.8 2.9-2.2.9-.4 2-.6 3.1-.6 2.3 0 4.1.7 5.3 2.2 1.2 1.4 1.7 3.2 1.7 5.2-.1 2-.9 3.9-2.4 5.8L682 66.8l54.2 74c1.2 1.7 1.7 3.5 1.5 5.4-.2 1.9-.9 3.5-2.3 4.8-1.3 1.3-2.9 2-4.7 2-2.9 0-5-1.1-6.5-3.3l-53.2-72-17.4 17.6v50.1c0 2.1-.8 3.9-2.2 5.4-1.6 1.3-3.4 2.1-5.5 2.1zM774.2 152.9c-2.2 0-4-.7-5.5-2.2-1.4-1.4-2.2-3.3-2.2-5.5V7.6c0-2.2.7-4 2.2-5.5 1.4-1.4 3.3-2.2 5.5-2.2s4 .7 5.5 2.2c1.4 1.4 2.2 3.3 2.2 5.5v137.6c0 2.2-.7 4-2.2 5.5-1.5 1.5-3.3 2.2-5.5 2.2zM828.6 152.9c-2.2 0-4-.7-5.5-2.2-1.4-1.4-2.2-3.3-2.2-5.5V7.6c0-2.2.7-4 2.2-5.5 1.4-1.4 3.3-2.2 5.5-2.2h36.6c9.5 0 18 2 25.5 6s13.3 9.5 17.5 16.6c4.2 7.1 6.4 15.3 6.4 24.6 0 8.9-2.1 16.8-6.4 23.7-4.2 6.9-10.1 12.3-17.5 16.3s-16 5.9-25.5 5.9h-29v52.3c0 2.2-.7 4-2.2 5.5-1.4 1.4-3.2 2.1-5.4 2.1zm7.6-74.6h29c6.7 0 12.6-1.3 17.7-4s9.2-6.4 12.2-11.1c3-4.7 4.5-10 4.5-16.1 0-6.4-1.5-12-4.5-16.9-3-4.9-7.1-8.7-12.2-11.5-5.2-2.7-11.1-4.1-17.7-4.1h-29v63.7zm74.2 74.6c-1.7 0-3-.3-4-1s-1.9-1.6-2.6-2.9l-37.6-59.9 15.3-3.9 35 56c2 3.1 2.3 5.9 1.1 8.2-1.3 2.3-3.7 3.5-7.2 3.5zM949.6 152.9c-2.1 0-3.9-.8-5.4-2.2-1.5-1.5-2.2-3.3-2.2-5.4V7.6c0-2.1.7-3.9 2.2-5.4 1.5-1.5 3.3-2.2 5.4-2.2 2.1 0 3.9.8 5.4 2.2 1.5 1.5 2.2 3.3 2.2 5.4v66.6l71.5-71.5c1-1 2-1.8 2.9-2.2.9-.4 2-.6 3.1-.6 2.4 0 4.1.7 5.3 2.2 1.2 1.4 1.7 3.2 1.7 5.2-.1 2-.9 3.9-2.4 5.8l-53.6 53.6 54.2 74c1.2 1.7 1.7 3.5 1.5 5.4-.2 1.9-.9 3.5-2.2 4.8-1.3 1.3-2.9 2-4.7 2-2.9 0-5-1.1-6.5-3.3l-53.2-72-17.4 17.6v50.1c0 2.1-.8 3.9-2.2 5.4-1.7 1.4-3.5 2.2-5.6 2.2z"/></g><g fill="#6E655D"><path d="M3.4 268.2c-.7 0-1.4-.2-1.8-.7-.5-.5-.7-1.1-.7-1.8v-45.9c0-.7.2-1.4.7-1.8s1.1-.7 1.8-.7h11.7c3.7 0 7.2.6 10.3 1.9 3.1 1.2 5.8 3 8.1 5.3s4 5 5.3 8.1c1.2 3.1 1.9 6.5 1.9 10.2s-.6 7.2-1.9 10.3c-1.2 3.1-3 5.8-5.3 8.1s-4.9 4-8.1 5.3c-3.1 1.2-6.5 1.9-10.3 1.9H3.4zm2.5-4.6h9.2c4 0 7.5-.9 10.6-2.7 3.1-1.8 5.5-4.3 7.2-7.4 1.7-3.2 2.6-6.8 2.6-10.8s-.9-7.6-2.6-10.8c-1.7-3.1-4.1-5.6-7.2-7.4-3.1-1.8-6.6-2.7-10.6-2.7H5.9v41.8zM80.3 268.5c-3.5 0-6.6-.8-9.4-2.3-2.7-1.5-4.8-3.7-6.4-6.4-1.5-2.7-2.3-5.9-2.3-9.4 0-3.6.7-6.7 2.2-9.4 1.5-2.7 3.5-4.9 6-6.4 2.6-1.6 5.5-2.3 8.9-2.3 3.3 0 6.2.7 8.6 2.2 2.5 1.5 4.4 3.6 5.7 6.2 1.3 2.7 2 5.7 2 9.1 0 .7-.2 1.2-.7 1.7-.4.4-1 .6-1.7.6H65.7v-4.2H94l-2.8 2c0-2.5-.4-4.8-1.4-6.8-1-2-2.3-3.6-4.1-4.7-1.8-1.1-3.9-1.7-6.3-1.7-2.5 0-4.7.6-6.5 1.8-1.9 1.2-3.3 2.8-4.3 4.9-1 2.1-1.5 4.4-1.5 7.1 0 2.7.6 5 1.7 7 1.2 2 2.7 3.7 4.7 4.8 2 1.2 4.3 1.8 6.9 1.8 1.6 0 3.1-.3 4.7-.8s2.9-1.2 3.8-2.1c.5-.4 1-.6 1.6-.6.6 0 1.1.1 1.6.5.6.5.9 1.1.9 1.7 0 .6-.2 1.1-.7 1.6-1.4 1.2-3.3 2.2-5.5 3-2.3.7-4.4 1.1-6.5 1.1zM128.8 268.2c-1 0-1.8-.6-2.3-1.7L112 235.8c-.3-.6-.3-1.1-.1-1.7.2-.6.7-1 1.3-1.3.6-.3 1.2-.4 1.8-.1s1 .6 1.3 1.2l13.9 30.1h-2.7l13.7-30.1c.3-.6.7-1 1.3-1.2s1.2-.2 1.9.1c.6.3 1 .8 1.2 1.3.2.6.2 1.1-.1 1.7l-14.3 30.8c-.5 1-1.3 1.6-2.4 1.6zM181.2 268.5c-3.5 0-6.6-.8-9.4-2.3-2.7-1.5-4.8-3.7-6.4-6.4-1.5-2.7-2.3-5.9-2.3-9.4 0-3.6.7-6.7 2.2-9.4 1.5-2.7 3.5-4.9 6-6.4 2.6-1.6 5.5-2.3 8.9-2.3 3.3 0 6.2.7 8.6 2.2 2.5 1.5 4.4 3.6 5.7 6.2 1.3 2.7 2 5.7 2 9.1 0 .7-.2 1.2-.7 1.7-.4.4-1 .6-1.7.6h-27.7v-4.2h28.3l-2.8 2c0-2.5-.4-4.8-1.4-6.8-1-2-2.3-3.6-4.1-4.7-1.8-1.1-3.9-1.7-6.3-1.7-2.5 0-4.7.6-6.5 1.8-1.9 1.2-3.3 2.8-4.3 4.9-1 2.1-1.5 4.4-1.5 7.1 0 2.7.6 5 1.7 7 1.2 2 2.7 3.7 4.7 4.8 2 1.2 4.3 1.8 6.9 1.8 1.6 0 3.1-.3 4.7-.8s2.9-1.2 3.8-2.1c.5-.4 1-.6 1.6-.6.6 0 1.1.1 1.6.5.6.5.9 1.1.9 1.7 0 .6-.2 1.1-.7 1.6-1.4 1.2-3.3 2.2-5.5 3-2.1.7-4.2 1.1-6.3 1.1zM226.4 268.2c-1.7 0-3.3-.5-4.7-1.4-1.4-1-2.4-2.3-3.2-4-.8-1.7-1.1-3.7-1.1-5.9v-37.2c0-.7.2-1.3.7-1.8.5-.5 1.1-.7 1.8-.7s1.3.2 1.8.7c.5.5.7 1.1.7 1.8v37.2c0 1.9.4 3.4 1.1 4.6.8 1.2 1.7 1.8 2.9 1.8h1.6c.7 0 1.2.2 1.6.7.4.5.6 1.1.6 1.8s-.3 1.3-.8 1.8-1.3.7-2.1.7h-.9zM265.1 268.5c-3.5 0-6.6-.8-9.3-2.3-2.7-1.6-4.9-3.7-6.5-6.5-1.6-2.7-2.4-5.9-2.4-9.3 0-3.5.8-6.7 2.4-9.4 1.6-2.7 3.7-4.9 6.5-6.5 2.7-1.6 5.9-2.3 9.3-2.3 3.5 0 6.6.8 9.3 2.3 2.7 1.6 4.9 3.7 6.4 6.5 1.6 2.7 2.4 5.9 2.4 9.4s-.8 6.6-2.4 9.3c-1.6 2.7-3.7 4.9-6.5 6.5-2.6 1.5-5.7 2.3-9.2 2.3zm0-4.5c2.5 0 4.8-.6 6.8-1.8 2-1.2 3.6-2.8 4.7-4.8s1.7-4.4 1.7-7c0-2.6-.6-4.9-1.7-7-1.1-2.1-2.7-3.7-4.7-4.9-2-1.2-4.3-1.8-6.8-1.8s-4.8.6-6.8 1.8c-2 1.2-3.6 2.8-4.7 4.9-1.2 2.1-1.7 4.4-1.7 7 0 2.6.6 4.9 1.7 7s2.7 3.7 4.7 4.8c2 1.2 4.3 1.8 6.8 1.8zM309.3 283.5c-.8 0-1.4-.2-1.9-.7-.5-.5-.7-1.1-.7-1.9v-30.8c0-3.4.9-6.4 2.4-9.2 1.6-2.7 3.7-4.9 6.5-6.4 2.7-1.6 5.8-2.3 9.2-2.3 3.5 0 6.6.8 9.3 2.4 2.7 1.6 4.9 3.8 6.5 6.5 1.6 2.7 2.4 5.9 2.4 9.3 0 3.4-.8 6.5-2.3 9.3-1.5 2.7-3.6 4.9-6.3 6.5-2.7 1.6-5.7 2.4-9 2.4-2.9 0-5.6-.6-7.9-1.9-2.4-1.2-4.3-2.9-5.7-4.9V281c0 .8-.2 1.4-.7 1.9-.5.3-1.1.6-1.8.6zm15.5-19.5c2.5 0 4.8-.6 6.8-1.8 2-1.2 3.6-2.8 4.7-4.9 1.2-2.1 1.7-4.4 1.7-7 0-2.6-.6-4.9-1.7-7-1.2-2-2.7-3.7-4.7-4.9-2-1.2-4.3-1.8-6.8-1.8s-4.7.6-6.7 1.8-3.6 2.8-4.7 4.9c-1.1 2-1.7 4.4-1.7 7 0 2.6.6 4.9 1.7 7 1.1 2.1 2.7 3.7 4.7 4.9 2 1.2 4.2 1.8 6.7 1.8zM382.7 268.5c-3.5 0-6.6-.8-9.4-2.3-2.7-1.5-4.8-3.7-6.4-6.4-1.5-2.7-2.3-5.9-2.3-9.4 0-3.6.7-6.7 2.2-9.4 1.5-2.7 3.5-4.9 6-6.4 2.6-1.6 5.5-2.3 8.9-2.3 3.3 0 6.2.7 8.6 2.2 2.5 1.5 4.4 3.6 5.7 6.2 1.3 2.7 2 5.7 2 9.1 0 .7-.2 1.2-.7 1.7-.4.4-1 .6-1.7.6H368v-4.2h28.3l-2.8 2c0-2.5-.4-4.8-1.4-6.8-1-2-2.3-3.6-4.1-4.7-1.8-1.1-3.9-1.7-6.3-1.7-2.5 0-4.7.6-6.5 1.8-1.9 1.2-3.3 2.8-4.3 4.9-1 2.1-1.5 4.4-1.5 7.1 0 2.7.6 5 1.7 7 1.2 2 2.7 3.7 4.7 4.8 2 1.2 4.3 1.8 6.9 1.8 1.6 0 3.1-.3 4.7-.8s2.9-1.2 3.8-2.1c.5-.4 1-.6 1.6-.6.6 0 1.1.1 1.6.5.6.5.9 1.1.9 1.7 0 .6-.2 1.1-.7 1.6-1.4 1.2-3.3 2.2-5.5 3-2.3.7-4.4 1.1-6.4 1.1zM422.7 268.2c-.8 0-1.4-.2-1.8-.6-.4-.4-.7-1-.7-1.8V235c0-.8.2-1.4.7-1.8.4-.4 1-.7 1.8-.7s1.4.2 1.8.7c.4.4.7 1 .7 1.8v30.7c0 .8-.2 1.4-.7 1.8-.4.5-1 .7-1.8.7zm-.4-22c.1-2.7.8-5.1 2.1-7.2 1.3-2.1 3-3.8 5-5 2.1-1.2 4.4-1.8 6.9-1.8 2 0 3.5.3 4.6.8 1.1.6 1.5 1.4 1.2 2.5-.2.7-.5 1.1-.9 1.3-.4.2-.9.3-1.5.3s-1.2-.1-2-.1c-2.4-.2-4.6 0-6.5.8-1.9.7-3.4 1.8-4.5 3.3-1.1 1.5-1.7 3.2-1.7 5.3h-2.7z"/></g><path fill="#6E655D" d="M539.1 273.3c-.9 0-1.6-.4-2.1-1.1-.5-.7-.6-1.6-.2-2.5l20.5-51.1c.2-.5.5-.9.9-1.1.4-.3.9-.4 1.4-.4 1 0 1.7.4 2.1 1.1.4.8.5 1.6.2 2.4l-20.5 51.2c-.2.5-.5.9-1 1.1-.4.3-.8.4-1.3.4z"/><g fill="#6E655D"><path d="M666.4 268.2c-.7 0-1.4-.2-1.8-.7-.5-.5-.7-1.1-.7-1.8v-45.9c0-.7.2-1.4.7-1.8.5-.5 1.1-.7 1.8-.7h11.7c3.7 0 7.2.6 10.3 1.9 3.1 1.2 5.8 3 8.1 5.3s4 5 5.3 8.1c1.2 3.1 1.9 6.5 1.9 10.2s-.6 7.2-1.9 10.3c-1.2 3.1-3 5.8-5.3 8.1s-4.9 4-8.1 5.3c-3.1 1.2-6.5 1.9-10.3 1.9h-11.7zm2.5-4.6h9.2c4 0 7.5-.9 10.6-2.7 3.1-1.8 5.5-4.3 7.2-7.4 1.7-3.2 2.6-6.8 2.6-10.8s-.9-7.6-2.6-10.8c-1.7-3.1-4.1-5.6-7.2-7.4-3.1-1.8-6.6-2.7-10.6-2.7h-9.2v41.8zM743.3 268.5c-3.5 0-6.6-.8-9.4-2.3-2.7-1.5-4.8-3.7-6.4-6.4-1.5-2.7-2.3-5.9-2.3-9.4 0-3.6.7-6.7 2.2-9.4 1.5-2.7 3.5-4.9 6-6.4 2.6-1.6 5.5-2.3 8.9-2.3 3.3 0 6.2.7 8.6 2.2 2.5 1.5 4.4 3.6 5.7 6.2 1.3 2.7 2 5.7 2 9.1 0 .7-.2 1.2-.7 1.7-.4.4-1 .6-1.7.6h-27.7v-4.2h28.3l-2.8 2c0-2.5-.4-4.8-1.4-6.8-1-2-2.3-3.6-4.1-4.7-1.8-1.1-3.9-1.7-6.3-1.7-2.5 0-4.7.6-6.5 1.8-1.9 1.2-3.3 2.8-4.3 4.9-1 2.1-1.5 4.4-1.5 7.1 0 2.7.6 5 1.7 7s2.7 3.7 4.7 4.8c2 1.2 4.3 1.8 6.9 1.8 1.6 0 3.1-.3 4.7-.8s2.9-1.2 3.8-2.1c.5-.4 1-.6 1.6-.6.6 0 1.1.1 1.6.5.6.5.9 1.1.9 1.7 0 .6-.2 1.1-.8 1.6-1.4 1.2-3.3 2.2-5.5 3-2 .7-4.1 1.1-6.2 1.1zM793.3 268.5c-2.6 0-5.1-.4-7.6-1.3s-4.6-2.2-6.1-3.9c-.5-.5-.7-1.1-.6-1.8.1-.7.4-1.2 1-1.7.6-.4 1.2-.6 1.9-.5.6.1 1.2.4 1.6.8 1 1.2 2.4 2.2 4.1 2.8 1.7.6 3.6 1 5.7 1 3.2 0 5.6-.6 7-1.7 1.4-1.1 2.2-2.4 2.2-4s-.7-2.9-2.2-3.9c-1.5-1-3.9-1.8-7.3-2.4-4.4-.7-7.6-1.9-9.7-3.7-2-1.7-3.1-3.8-3.1-6.2 0-2.2.6-4.1 1.8-5.5 1.2-1.5 2.7-2.6 4.7-3.3s4.1-1.1 6.5-1.1c2.9 0 5.4.5 7.5 1.5 2.1 1 3.8 2.4 5.1 4 .4.6.6 1.2.5 1.8-.1.6-.4 1.1-1 1.5-.5.3-1.1.4-1.8.3-.7-.1-1.3-.4-1.7-.9-1.1-1.3-2.3-2.2-3.8-2.8-1.4-.6-3.1-.9-5-.9-2.4 0-4.3.5-5.7 1.5-1.4 1-2.2 2.2-2.2 3.7 0 1 .3 1.9.8 2.6s1.5 1.4 2.8 2c1.3.6 3.2 1 5.6 1.4 3.3.5 5.8 1.3 7.7 2.3 1.9 1 3.2 2.2 4 3.6.8 1.4 1.2 2.9 1.2 4.5 0 2-.6 3.8-1.8 5.4s-2.8 2.8-5 3.6c-1.9.9-4.3 1.3-7.1 1.3zM833.3 225.7c-1 0-1.8-.4-2.5-1-.7-.7-1-1.5-1-2.5 0-1.1.4-2 1.1-2.6.7-.6 1.6-.9 2.5-.9.9 0 1.7.3 2.4.9s1.1 1.5 1.1 2.6c0 1-.4 1.8-1 2.5-.8.7-1.6 1-2.6 1zm0 42.5c-.8 0-1.4-.2-1.9-.7-.5-.5-.7-1.1-.7-1.9V235c0-.8.2-1.4.7-1.9.5-.5 1.1-.7 1.9-.7.7 0 1.3.2 1.8.7.5.5.7 1.1.7 1.9v30.6c0 .8-.2 1.4-.7 1.9-.4.5-1 .7-1.8.7zM878 268.5c-3.4 0-6.5-.8-9.1-2.3-2.7-1.5-4.7-3.7-6.2-6.4s-2.3-5.9-2.3-9.4c0-3.6.8-6.7 2.4-9.5s3.7-4.9 6.5-6.4 5.9-2.3 9.3-2.3c3.5 0 6.6.8 9.4 2.3 2.7 1.5 4.8 3.7 6.4 6.4s2.3 5.9 2.4 9.5l-2.9 1.6c0 3.2-.7 6.1-2 8.6-1.4 2.5-3.2 4.5-5.6 5.9-2.6 1.3-5.3 2-8.3 2zm.6 13.8c-3.4 0-6.5-.6-9.1-1.9-2.6-1.3-4.8-3-6.5-5.3-.5-.5-.7-1.1-.6-1.7.1-.6.4-1.1.9-1.5.6-.4 1.2-.5 1.9-.4.7.1 1.2.5 1.6 1 1.3 1.6 2.9 2.8 4.9 3.8 2 1 4.3 1.4 6.9 1.4 2.4 0 4.6-.6 6.6-1.8 2-1.2 3.5-2.8 4.7-5 1.2-2.1 1.7-4.6 1.7-7.5v-9.9l1.9-3.8 3.1.6v13.3c0 3.5-.8 6.7-2.4 9.5-1.6 2.8-3.7 5-6.4 6.7-2.6 1.7-5.7 2.5-9.2 2.5zm-.1-18.3c2.6 0 4.8-.6 6.8-1.7 2-1.2 3.5-2.8 4.7-4.8 1.1-2 1.7-4.4 1.7-7 0-2.7-.6-5-1.7-7.1-1.1-2.1-2.7-3.7-4.7-4.8-2-1.2-4.3-1.7-6.8-1.7s-4.8.6-6.9 1.7c-2 1.2-3.6 2.8-4.7 4.8-1.1 2.1-1.7 4.4-1.7 7.1 0 2.7.6 5 1.7 7s2.7 3.6 4.7 4.8c2 1.1 4.3 1.7 6.9 1.7zM922.7 268.2c-.8 0-1.4-.2-1.9-.7-.5-.5-.7-1.1-.7-1.8V235c0-.8.2-1.4.7-1.9.5-.5 1.1-.7 1.9-.7.7 0 1.3.2 1.8.7.5.5.7 1.1.7 1.9v30.7c0 .7-.2 1.3-.7 1.8-.5.5-1.1.7-1.8.7zm28 0c-.7 0-1.4-.2-1.8-.7-.5-.5-.7-1.1-.7-1.8v-17c0-2.7-.5-4.9-1.5-6.7-1-1.7-2.4-3-4.2-3.9-1.8-.9-3.8-1.3-6-1.3-2.1 0-4.1.4-5.8 1.2-1.7.8-3.1 2-4.1 3.4-1 1.4-1.5 3.1-1.5 4.9h-3.6c.1-2.7.8-5.2 2.2-7.3 1.4-2.2 3.2-3.8 5.5-5.1 2.3-1.2 4.9-1.9 7.7-1.9 3.1 0 5.9.6 8.3 1.9 2.4 1.3 4.4 3.2 5.8 5.6s2.1 5.5 2.1 9.1v17c0 .7-.2 1.3-.7 1.8-.4.6-1 .8-1.7.8zM994.2 268.5c-3.5 0-6.6-.8-9.4-2.3-2.7-1.5-4.8-3.7-6.4-6.4-1.5-2.7-2.3-5.9-2.3-9.4 0-3.6.7-6.7 2.2-9.4 1.5-2.7 3.5-4.9 6-6.4 2.6-1.6 5.5-2.3 8.9-2.3 3.3 0 6.2.7 8.6 2.2 2.5 1.5 4.4 3.6 5.7 6.2 1.3 2.7 2 5.7 2 9.1 0 .7-.2 1.2-.7 1.7-.4.4-1 .6-1.7.6h-27.7v-4.2h28.3l-2.8 2c0-2.5-.4-4.8-1.4-6.8-1-2-2.3-3.6-4.1-4.7-1.8-1.1-3.9-1.7-6.3-1.7-2.5 0-4.7.6-6.5 1.8-1.9 1.2-3.3 2.8-4.3 4.9-1 2.1-1.5 4.4-1.5 7.1 0 2.7.6 5 1.7 7s2.7 3.7 4.7 4.8c2 1.2 4.3 1.8 6.9 1.8 1.6 0 3.1-.3 4.7-.8s2.9-1.2 3.8-2.1c.5-.4 1-.6 1.6-.6.6 0 1.1.1 1.6.5.6.5.9 1.1.9 1.7 0 .6-.2 1.1-.8 1.6-1.4 1.2-3.3 2.2-5.5 3-2 .7-4.2 1.1-6.2 1.1zM1034.2 268.2c-.8 0-1.4-.2-1.8-.6-.4-.4-.7-1-.7-1.8V235c0-.8.2-1.4.7-1.8.4-.4 1-.7 1.8-.7s1.4.2 1.8.7c.4.4.7 1 .7 1.8v30.7c0 .8-.2 1.4-.7 1.8-.4.5-1 .7-1.8.7zm-.4-22c.1-2.7.8-5.1 2.1-7.2 1.3-2.1 3-3.8 5-5 2.1-1.2 4.4-1.8 6.9-1.8 2 0 3.5.3 4.6.8 1.1.6 1.5 1.4 1.2 2.5-.2.7-.5 1.1-.9 1.3-.4.2-.9.3-1.5.3s-1.2-.1-2-.1c-2.4-.2-4.6 0-6.5.8-1.9.7-3.4 1.8-4.5 3.3-1.1 1.5-1.7 3.2-1.7 5.3h-2.7z"/></g></svg>