<svg xmlns="http://www.w3.org/2000/svg" width="1931.3" height="283.5" viewBox="0 0 1931.3 283.5"><g fill="#003E52"><path d="M14 283.5c-5.6 0-9.6-2.2-12-6.7-2.4-4.5-2.7-9-.7-13.6L104.4 9.8C107 3.3 111.5 0 117.8 0c6.5 0 11 3.3 13.4 9.8l103.4 253.7c1.9 4.8 1.6 9.4-1.1 13.6-2.7 4.2-6.5 6.4-11.6 6.4-2.9 0-5.5-.7-7.8-2.2-2.3-1.5-4.1-3.6-5.3-6.5L112.7 32.7h10.9L27.1 274.8c-1.2 2.9-3 5.1-5.4 6.5-2.5 1.4-5 2.2-7.7 2.2zM291.3 283.5c-4.1 0-7.5-1.3-10.2-4-2.7-2.7-4-6-4-10.2V14.2c0-4.1 1.3-7.5 4-10.2 2.7-2.7 6-4 10.2-4 4.4 0 8 1.7 10.9 5.1L475.7 233V14.2c0-4.1 1.3-7.5 4-10.2 2.7-2.7 6-4 10.2-4 3.9 0 7.2 1.3 10 4s4.2 6 4.2 10.2v255.2c0 4.1-1.4 7.5-4.2 10.2-2.8 2.7-6.1 4-10 4-1.9 0-3.9-.4-5.8-1.1-1.9-.7-3.5-1.9-4.7-3.6l-174-228.1v218.5c0 4.1-1.4 7.5-4.2 10.2-2.7 2.6-6 4-9.9 4zM590.7 283.5c-4.1 0-7.5-1.3-10.2-4-2.7-2.7-4-6-4-10.2V14.2c0-4.1 1.3-7.5 4-10.2 2.7-2.7 6-4 10.2-4H656c20.8 0 39.9 3.4 57.2 10.3 17.3 6.9 32.2 16.7 44.8 29.4 12.6 12.7 22.3 27.6 29.2 44.8 6.9 17.2 10.3 36.2 10.3 57 0 20.8-3.4 39.9-10.3 57.2-6.9 17.3-16.6 32.3-29.2 45-12.6 12.7-27.5 22.5-44.8 29.4-17.3 6.9-36.4 10.3-57.2 10.3h-65.3zm14.2-25.4H656c22.3 0 41.9-5 59-15.1 17.1-10 30.4-23.8 40.1-41.4 9.7-17.5 14.5-37.6 14.5-60.1s-4.8-42.5-14.5-60.1c-9.7-17.5-23-31.3-40.1-41.2-17.1-9.9-36.7-14.9-59-14.9h-51.2v232.8zM923.2 283.5c-3.9 0-7.2-1.4-10-4.2-2.8-2.8-4.2-6.1-4.2-10v-90.7L810.3 22.1c-2.4-3.6-3.3-7.1-2.7-10.5.6-3.4 2.1-6.2 4.5-8.4s5.4-3.3 9.1-3.3c2.9 0 5.3.6 7.1 1.8 1.8 1.2 3.4 2.9 4.9 5.1l98 157.9H916l97.6-157.2c1.7-2.7 3.6-4.6 5.6-5.8 2.1-1.2 4.5-1.8 7.4-1.8 3.4 0 6.2 1.1 8.5 3.4s3.6 5.1 4 8.5c.4 3.4-.5 6.8-2.7 10.2l-99.1 156.4v90.7c0 3.9-1.4 7.2-4.2 10s-6.1 4.4-9.9 4.4zM1197.6 283.5c-3.9 0-7.2-1.4-10-4.2-2.8-2.8-4.2-6.1-4.2-10V14.2c0-3.9 1.4-7.2 4.2-10 2.8-2.8 6.1-4.2 10-4.2s7.2 1.4 10 4.2c2.8 2.8 4.2 6.1 4.2 10v123.4L1344.2 5.1c1.9-1.9 3.7-3.3 5.4-4 1.7-.7 3.6-1.1 5.8-1.1 4.3 0 7.6 1.3 9.8 4 2.2 2.7 3.2 5.9 3.1 9.6-.1 3.7-1.6 7.3-4.5 10.7l-99.4 99.4L1364.9 261c2.2 3.2 3.1 6.5 2.7 10-.4 3.5-1.8 6.5-4.2 8.9-2.4 2.4-5.3 3.6-8.7 3.6-5.3 0-9.3-2.1-12-6.2L1244 143.7l-32.3 32.7v92.9c0 3.9-1.4 7.2-4.2 10-2.8 2.8-6.1 4.2-9.9 4.2zM1435.3 283.5c-4.1 0-7.5-1.3-10.2-4-2.7-2.7-4-6-4-10.2V14.2c0-4.1 1.3-7.5 4-10.2 2.7-2.7 6-4 10.2-4 4.1 0 7.5 1.3 10.2 4 2.7 2.7 4 6 4 10.2v255.2c0 4.1-1.3 7.5-4 10.2-2.7 2.5-6.1 3.9-10.2 3.9zM1536.2 283.5c-4.1 0-7.5-1.3-10.2-4-2.7-2.7-4-6-4-10.2V14.2c0-4.1 1.3-7.5 4-10.2 2.7-2.7 6-4 10.2-4h67.9c17.7 0 33.4 3.7 47.2 11.1 13.8 7.4 24.6 17.7 32.5 30.8 7.9 13.2 11.8 28.4 11.8 45.5 0 16.5-3.9 31.1-11.8 43.9-7.9 12.8-18.7 22.9-32.5 30.1-13.8 7.3-29.5 10.9-47.2 10.9h-53.7v96.9c0 4.1-1.3 7.5-4 10.2-2.7 2.7-6.1 4.1-10.2 4.1zm14.1-138.3h53.7c12.3 0 23.3-2.5 32.9-7.4 9.5-5 17.1-11.8 22.7-20.5 5.6-8.7 8.3-18.6 8.3-29.8 0-11.9-2.8-22.3-8.3-31.4-5.6-9.1-13.1-16.2-22.7-21.2-9.6-5.1-20.5-7.6-32.9-7.6h-53.7v117.9zm137.6 138.3c-3.2 0-5.6-.6-7.4-1.8-1.8-1.2-3.4-3-4.9-5.4l-69.7-111.1 28.3-7.3 65 103.8c3.6 5.8 4.3 10.9 2 15.2-2.4 4.4-6.8 6.6-13.3 6.6zM1760.5 283.5c-3.9 0-7.2-1.4-10-4.2-2.8-2.8-4.2-6.1-4.2-10V14.2c0-3.9 1.4-7.2 4.2-10 2.8-2.8 6.1-4.2 10-4.2 3.9 0 7.2 1.4 10 4.2 2.8 2.8 4.2 6.1 4.2 10v123.4L1907.1 5.1c1.9-1.9 3.7-3.3 5.4-4 1.7-.7 3.6-1.1 5.8-1.1 4.4 0 7.6 1.3 9.8 4 2.2 2.7 3.2 5.9 3.1 9.6-.1 3.7-1.6 7.3-4.5 10.7l-99.5 99.4L1927.8 261c2.2 3.2 3.1 6.5 2.7 10-.4 3.5-1.8 6.5-4.2 8.9-2.4 2.4-5.3 3.6-8.7 3.6-5.3 0-9.3-2.1-12-6.2l-98.7-133.6-32.3 32.7v92.9c0 3.9-1.4 7.2-4.2 10-2.7 2.8-6 4.2-9.9 4.2z"/></g></svg>