<?xml version="1.0" encoding="utf-8"?>
<!-- Generator: Adobe Illustrator 25.2.1, SVG Export Plug-In . SVG Version: 6.00 Build 0)  -->
<svg version="1.1" id="Layer_1" xmlns="http://www.w3.org/2000/svg" xmlns:xlink="http://www.w3.org/1999/xlink" x="0px" y="0px"
	 width="1080.4px" height="283.5px" viewBox="0 0 1080.4 283.5" enable-background="new 0 0 1080.4 283.5" xml:space="preserve">
<path fill="#F39200" d="M114.6,21.7c5.2,7.6,13.4,18.2,24.2,15.4c6.9-1,12.3-6.5,18.9-7.2c1.4,0.4,3,1.7,4.4,3.5s0.3,11.3,13,14.8
	s34.9,3.8,39.4,17s7.2,9.4,8.6,10.3c1.4,0.9,30.4-3.9,34.1,18.7c1,13.3,5.6,27.2,2.8,40.2c-31.8,67.4,16.7,21.1,49.1,103.7
	c-21.6-68.1-62-48.8-45-105.1c0,0,9.6-27.1,3.8-41.7c-8-27.6-38.2-15.3-43-22.1s0.1-8.7-6.4-16.3c-6.4-7.6-33.8,1.7-43.8-7.8
	c-10.1-9.6-9.1-32.3-26.9-20c-5.4,5.1-16.1,11-20.7,6.2c-4.5-4.8,0.5-2.2-5.9-15.8C114.6,1.9,97.1-3.8,84,2.6
	c-8.9,5.6-16.9,12.9-26.9,16.7l0.4,1.1C81.8,12.7,109.4,14.1,114.6,21.7z"/>
<path fill="#F39200" d="M330.1,265.7c-1.9-2.7-7.1-6.3-13.7-10.3c1.5-10.1-4.3-24.3-6.3-30.7c-0.3,3.1,1.9,20.4-2.2,28.3
	c-7.1-4.2-9.3-4.5-18-15.7c-8.7-11.1-40.7-46.5-56.4-61.4c-5.4-24.7-6.8-52.8-0.2-72l-1.5-1.5c-12.1,21.1-10.1,45.7-3.1,69
	c-11.4-10.5-23.6-20.6-36.5-30c-11-19.3-16.5-41.9-22.3-63.3l-2.7,0.3c2.3,22,11.1,43,23.3,61.7c-8.3-6-29.9-19.6-31.5-20.6
	c-1-3.8-2.2-8.1-3.8-13.8c-6.2-18-17-33.3-24.2-51l-3.4,0.4c6.3,22.5,20.5,41.9,29.6,63.4C127.9,101.6,96,88.4,61.8,81.1l-0.1,0.5
	c34.1,7.7,65.4,22.9,94.5,41.9c-22.4,2.7-44.9,3.5-67.4,4.8l-0.6,2.9c23.3,3.5,46.4-2.3,69.3-6.8c0.8,0.6,34.3,24.6,48.9,36.9
	c0.6,0.7,1.1,1.3,1.7,2l0.3-0.3c6.4,5.4,12.7,10.9,18.9,16.4c0.3,0.3,0.6,0.6,1,0.9c-26.6-15.7-60.3-11.7-89.1-0.6l1.1,3
	c29.9-7.8,65.5-11,93.6,3.8c2.9,7.7,6.2,15.1,9.5,22l0.5-0.2c-2.7-5.9-5.1-12.8-7.3-20.3c0.2,0.1,0.5,0.3,0.7,0.4
	c13.1,11.7,68.7,68.3,67.7,68.4c2.6,13.5-49.7-1.3-69.2-1.3s-21.8-1.5-31.4-3.7s-14.3-6.4-11.7-12.1c2.6-5.7-3.2-11.5-3.7-18.1
	s22-18.8-12.3-8.4c-33.2,10.1-66.3-8.2-66.6-16.1c-0.4-7.9,3.1-18.3-2.3-30.4c-5.4-12.1-35.4-11.8-35.4-11.8s-65.4-3.7-38-39.3
	C34,103.4,19.3,93.5,10.9,81.5c-6.4-8.6-3.6-27-1.8-31.8s3.1-4.7,7.1-9.9s34.5-12.2,60.5-7l0.1-0.5C48,14.7,25.4,20,11.7,40.5
	C-2.1,61.1-2.6,71.9,4.4,85.2c4.5,7.7,15.9,13.7,17.8,18.9c2,5.2,4.2,9.4,7.3,10.3c-29.6,19.4,13.3,45,29.6,45.9
	c16.3,0.9,36.3,12,41.8,12.5s8.5,10.4,3.7,17.1s6.3,17.8,11.8,20.6c6.3,3.2,37.3,16,52.6,9s19.3-4.8,17.4,1.5s3.9,13.6,3.6,17.9
	s-4,2.6,1,11.2c5,8.7,32,6.8,42.8,9.1c10.7,2.3,80.3,10.3,77.1,6s-3.9-5.6,1.6-1.5c5.5,4.2,9.9,7.3,11.7,9.6
	c5.9,5.2,22.2,10.3,22.2,10.3C338.5,280.2,336.5,270.6,330.1,265.7z"/>
<path fill="#564B50" d="M352.8,75.4c-1.2,2.1-2.8,8.7-5,19.9s-3.3,20.6-3.3,28.1c4.2-0.7,8.5-1.2,12.9-1.7l19.1-2.2
	c3-0.4,7.3-1.4,12.7-2.8c5.5-1.5,9.3-2.2,11.3-2.2c7.2,0,10.7,2.9,10.7,8.7c0,1.2-1,2.6-3,4.4s-4.7,3-8.1,3.7s-11.5,1.8-24.3,3.2
	c-15.8,1.8-25.1,3.2-28.1,4.1c-2.9,0.9-4.7,1.9-5.2,2.8c-0.5,0.9-1.1,5.3-1.7,13.2s-0.9,14.2-0.9,19.1l0.4,11.3
	c0,6.2-2.2,9.3-6.7,9.3c-2.8,0-5.4-1.1-7.7-3.2c-2.4-2.1-3.5-5-3.5-8.5c0-14.1,3.5-43.7,10.4-88.9c1.6-10.5,2.5-16.2,2.5-17
	c0-1.2-0.4-2.9-1.1-5.3c-1-3-1.5-5-1.5-6.2c0-1.6,0.9-3.4,2.7-5.3c1.8-1.9,3.5-2.9,5.2-2.9l12,1.4c3.7,0,10.6-0.6,20.6-1.8
	c17.1-2.1,28.8-3.1,35.2-3.1c5.6,0,9.6,0.9,12,2.5c2.4,1.7,3.6,3.4,3.6,5c0,2.9-1,5.4-3,7.5s-4.1,3.1-6.3,3.1c-1,0-2.2-0.1-3.4-0.4
	c-6.6-1.1-11.6-1.6-15.1-1.6c-6.5,0-14.9,0.6-25.2,1.8C360.6,72.6,354.5,73.9,352.8,75.4z"/>
<path fill="#564B50" d="M490.1,153.1c-8.5,11.4-16.9,19.9-25.2,25.6c-8.3,5.7-15.9,8.5-22.8,8.5c-4.7,0-8.7-2-12.1-5.9
	s-5.1-9-5.1-15.2c0-15.9,7.1-33.1,21.4-51.5C460.5,96.2,474.7,87,488.8,87c5.1,0,8.9,2.9,11.4,8.7c0.8,1.9,2,2.9,3.7,2.9
	c4.8,0,7.3,1.9,7.3,5.6c0,1.9-0.3,4.5-0.9,7.7c-3.3,17.9-4.9,30.5-4.9,37.8c0,14.7,2.8,23.5,8.4,26.4c2.7,1.5,4,3.2,4,5.4
	c0,1.9-1.3,3.8-3.9,5.7c-2.6,1.9-5.1,2.9-7.5,2.9c-4.7,0-8.5-3.2-11.5-9.6C491.6,174.2,490.1,165,490.1,153.1z M484.5,101.9
	c-8,0-17.3,7.5-27.9,22.5s-15.9,27.4-15.9,37.3c0,7,2.3,10.5,6.9,10.5c6.7,0,15.9-6.7,27.7-20.2s17.7-25.8,17.7-37.1
	C493.1,106.3,490.2,101.9,484.5,101.9z"/>
<path fill="#564B50" d="M569.9,32.3c4.4,0,6.5,2.8,6.5,8.4c0,5-2.6,16.8-7.9,35.5c-3.3,11.8-5.9,24.7-7.7,38.9s-2.7,25.3-2.7,33.4
	c0,10,0.6,19.9,1.9,29.8c0.2,1.9,0.4,3.2,0.4,4.1c0,3-1,5.6-3.1,7.8s-4.2,3.3-6.5,3.3c-3.2,0-5.4-2-6.7-6c-1.2-4-1.9-10.5-1.9-19.4
	c0-20.3,2.4-45.5,7.3-75.5c4.9-30,8.8-47.6,11.6-52.7C564,34.8,566.9,32.3,569.9,32.3z"/>
<path fill="#564B50" d="M623.2,32.3c4.4,0,6.5,2.8,6.5,8.4c0,5-2.6,16.8-7.9,35.5c-3.3,11.8-5.9,24.7-7.7,38.9s-2.7,25.3-2.7,33.4
	c0,10,0.6,19.9,1.9,29.8c0.2,1.9,0.4,3.2,0.4,4.1c0,3-1,5.6-3.1,7.8s-4.2,3.3-6.5,3.3c-3.2,0-5.4-2-6.7-6c-1.2-4-1.9-10.5-1.9-19.4
	c0-20.3,2.4-45.5,7.3-75.5c4.9-30,8.8-47.6,11.6-52.7C617.3,34.8,620.2,32.3,623.2,32.3z"/>
<path fill="#564B50" d="M731.8,111.8c0,1,0.6,1.6,1.8,1.9c6.5,1.9,12.3,5.5,17.4,11c5,5.4,7.5,11.9,7.5,19.3
	c0,11.5-7.3,23.3-22,35.4c-14.7,12.1-30.1,18.2-46.3,18.2c-4.5,0-8.1-0.6-10.7-1.8c-2.6-1.2-3.9-2.6-3.9-4.1
	c0-7.6,5.4-11.5,16.2-11.5c1.5,0,3.9,0.1,7,0.2c3.2,0.1,6.9-0.7,11-2.3c4.2-1.7,8.2-3.8,12.1-6.5c3.9-2.6,7.3-5.4,10.1-8.2
	s5.1-5.8,6.8-9s2.6-6.3,2.6-9.5c0-5.2-2.3-9.9-6.8-13.9c-4.5-4.1-10.5-6.1-18.1-6.1c-1.2,0-4.1,1-8.6,2.9c-4.5,2-7.5,3-8.9,3
	c-4.7,0-7.7-0.6-8.9-1.8s-1.8-3.4-1.8-6.5c0-1.9,5.1-4.9,15.4-9.1c8.5-3.4,16.8-8.9,24.9-16.6c8-7.7,12-14.2,12-19.6
	c0-3.7-1.5-6.6-4.5-8.8c-3-2.2-7.3-3.3-12.7-3.3c-9,0-18,1.1-26.9,3.3c-8.9,2.2-13.8,4.3-14.7,6.2c-0.9,1.9-3.4,16.6-7.4,44.1
	c-4.1,27.4-6.1,43.3-6.1,47.6c0,4.2,0.1,8.2,0.3,11.9s-0.5,6.8-2,9.5c-1.5,2.6-4,4-7.6,4c-3.3,0-5.8-1.3-7.6-3.9
	c-1.8-2.6-2.7-5.8-2.7-9.8c0-1,0.3-2.6,0.8-4.7c3.2-13,6.1-29.7,8.9-50c2.8-20.3,4.2-32,4.2-35.2c0-2.5-0.4-4.4-1-5.6
	c-0.7-1.2-2.3-1.8-4.8-1.8c-1,0-1.9,0-2.9,0.1c-0.9,0.1-1.9-0.5-2.8-1.7c-0.9-1.2-1.4-2.7-1.4-4.4c0-5.3,8.6-10.6,25.7-15.7
	c17.2-5.2,34.6-7.7,52.3-7.7c9.1,0,16.5,2.4,22.3,7.3s8.7,10.6,8.7,17.1c0,4.9-2.5,10.6-7.4,17.1C746.6,99.4,740,105.7,731.8,111.8z
	"/>
<path fill="#564B50" d="M842.7,153.1c-8.5,11.4-16.9,19.9-25.2,25.6c-8.3,5.7-15.9,8.5-22.8,8.5c-4.7,0-8.7-2-12.1-5.9
	c-3.4-3.9-5.1-9-5.1-15.2c0-15.9,7.1-33.1,21.4-51.5C813.1,96.2,827.3,87,841.4,87c5.1,0,8.9,2.9,11.4,8.7c0.8,1.9,2,2.9,3.7,2.9
	c4.8,0,7.3,1.9,7.3,5.6c0,1.9-0.3,4.5-0.9,7.7c-3.3,17.9-4.9,30.5-4.9,37.8c0,14.7,2.8,23.5,8.4,26.4c2.7,1.5,4,3.2,4,5.4
	c0,1.9-1.3,3.8-3.9,5.7c-2.6,1.9-5.1,2.9-7.5,2.9c-4.7,0-8.5-3.2-11.5-9.6C844.2,174.2,842.7,165,842.7,153.1z M837.2,101.9
	c-8,0-17.3,7.5-27.9,22.5c-10.6,15-15.9,27.4-15.9,37.3c0,7,2.3,10.5,6.9,10.5c6.7,0,15.9-6.7,27.7-20.2s17.7-25.8,17.7-37.1
	C845.7,106.3,842.9,101.9,837.2,101.9z"/>
<path fill="#564B50" d="M915.6,191.4c-9.1,0-16.1-2.6-21-7.8s-7.3-12.5-7.3-21.9c0-15.8,6.3-32.5,18.8-50.1s24.2-26.3,35-26.3
	c4.9,0,9.1,2.7,12.7,8c3.5,5.3,5.3,10.9,5.3,16.9c0,3.6-0.8,6.7-2.3,9.2c-1.5,2.6-3.1,3.9-4.7,3.9c-3.5,0-6-3.5-7.5-10.6
	c-1.6-7.6-4-11.5-7.1-11.5c-6.3,0-13.8,7.5-22.4,22.5c-8.6,15-12.9,27.6-12.9,37.9s5.8,15.5,17.6,15.5c8.9,0,19.4-4.2,31.5-12.5
	c4.2-3,7.4-4.5,9.4-4.5c2.1,0,3.1,1.2,3.1,3.5c0,4.6-5.4,10.4-16.3,17.4C936.6,187.9,926,191.4,915.6,191.4z"/>
<path fill="#564B50" d="M1002.8,143.7c0.8-1,6.2-5.9,16.3-14.6c9.5-8.3,16.2-14.3,19.9-18.1c14-14,24.1-21,30.2-21
	c4.7,0,7.1,2.3,7.1,6.8c0,5.2-2.3,8.9-7,11.4c-6.1,3.1-14.2,8.2-24.3,15.4c-10.1,7.2-15.2,12.3-15.2,15.2c0,1.2,3.6,5.7,10.7,13.6
	c7.2,7.9,13.3,13.6,18.6,17.4c5.2,3.7,10.3,5.6,15.2,5.6l3-0.1c2.1-0.1,3.2,0.8,3.2,2.8c0,2.7-1.7,5.4-5,8.1
	c-3.3,2.8-7.7,4.1-13.2,4.1c-3.5,0-7.1-1.2-10.7-3.7s-10-9.1-19.2-19.9c-7.3-8.9-11.9-14.2-13.7-16c-1.8-1.7-3.3-2.6-4.5-2.6
	c-0.7,0-2.8,1.6-6.4,4.7c-3.6,3.2-5.5,5.5-5.9,7.2c-0.3,1.6-0.5,7.9-0.5,18.7v4.3c0,2.2-1.1,4.2-3.2,6c-2.1,1.8-4.4,2.6-6.9,2.6
	s-4.5-0.7-6-2.2s-2.2-3-2.2-4.6c0-2.2,0.8-7.3,2.5-15.5c2.3-11.7,4.4-27.4,6.4-47c4.5-46.4,7.9-72.6,10.4-78.7
	c2.4-6.1,5.9-9.1,10.4-9.1c1.6,0,2.9,0.9,4,2.5c1.1,1.7,1.6,3.9,1.6,6.5c0,4.9-2.1,17.7-6.3,38.6
	C1007.7,103.4,1004.7,123.9,1002.8,143.7z"/>
<path fill="#F39200" d="M1011.3,238.2c0,0-153.8,3.1-319.6,0c-165.7-3.1-286.8,25.6-319.6,0s143.1-14,319.6-14
	S1011.3,238.2,1011.3,238.2z"/>
</svg>
