<?xml version="1.0" encoding="utf-8"?>
<!-- Generator: Adobe Illustrator 15.1.0, SVG Export Plug-In . SVG Version: 6.00 Build 0)  -->
<!DOCTYPE svg PUBLIC "-//W3C//DTD SVG 1.1//EN" "http://www.w3.org/Graphics/SVG/1.1/DTD/svg11.dtd">
<svg version="1.1" id="Layer_1" xmlns="http://www.w3.org/2000/svg" xmlns:xlink="http://www.w3.org/1999/xlink" x="0px" y="0px"
	 width="419.279px" height="130.394px" viewBox="0 0 419.279 130.394" enable-background="new 0 0 419.279 130.394"
	 xml:space="preserve">
<g>
	<path fill="#ED6E1C" d="M409.213,11.245c3.654,0,6.82,2.749,7.47,6.523h-15.061C402.352,13.953,405.478,11.245,409.213,11.245
		 M409.213,29.38c3.37,0,6.333-1.805,8.038-4.554c0.284-0.493,0.122-1.067-0.325-1.396c-0.406-0.246-1.015-0.164-1.299,0.328
		c-1.339,2.257-3.775,3.652-6.414,3.652c-4.101,0-7.51-3.324-7.713-7.714h16.318c0.528,0,0.976-0.369,0.976-0.902v-0.123v-0.041
		c-0.406-5.252-4.466-9.355-9.581-9.355c-5.359,0-9.662,4.514-9.662,10.094C399.551,24.867,403.854,29.38,409.213,29.38
		 M388.549,8.866c0,3.363-2.679,6.112-5.967,6.194h-0.366h-6.82V2.671h7.023C385.789,2.671,388.549,5.42,388.549,8.866
		 M388.874,27.616c0.446,0.901,1.299,1.313,1.827,1.313h0.081c0.243,0,0.446-0.041,0.486-0.041c0.528-0.206,0.772-0.78,0.65-1.313
		c-0.162-0.452-0.65-0.698-1.096-0.657c-0.041-0.041-0.244-0.205-0.406-0.697c-0.203-0.616-0.366-1.641-0.366-3.324
		c0-3.24-1.948-5.333-3.816-6.399c-0.161-0.082-0.283-0.123-0.405-0.205c2.761-1.313,4.669-4.145,4.669-7.426
		c0-4.555-3.613-8.206-8.079-8.206h-7.916h-0.122H374.3c-0.487,0.041-0.893,0.493-0.893,0.984v26.75
		c0,0.534,0.446,0.985,0.974,0.985c0.569,0,1.015-0.451,1.015-0.985V17.03h6.902c0.04,0,0.081,0.041,0.203,0.083
		c0.526,0.082,2.028,0.532,3.288,1.436c1.258,0.943,2.313,2.256,2.313,4.348C388.103,25.317,388.387,26.672,388.874,27.616
		 M353.19,27.411c-4.06,0-7.47-3.57-7.47-8.083c0-4.514,3.41-8.124,7.47-8.124c4.101,0,7.47,3.61,7.47,8.124
		C360.66,23.841,357.291,27.411,353.19,27.411 M361.635,9.275c-0.528,0-0.975,0.41-0.975,0.985v2.954
		c-1.705-2.38-4.426-3.939-7.47-3.939c-5.236,0-9.419,4.555-9.419,10.053s4.183,10.052,9.419,10.052c3.044,0,5.765-1.6,7.47-3.98
		v2.995c0,0.534,0.446,0.985,0.975,0.985c0.527,0,0.974-0.451,0.974-0.985V10.261C362.608,9.686,362.162,9.275,361.635,9.275
		 M311.336,14.896L311.336,14.896c0,8,6.617,14.483,14.776,14.483c3.491,0,6.698-1.19,9.176-3.118
		c0.445-0.328,0.527-1.066,0.122-1.436c-0.285-0.493-0.935-0.575-1.422-0.246c-2.11,1.805-4.871,2.79-7.876,2.79
		c-7.104,0-12.787-5.621-12.787-12.474c0-7.016,5.684-12.637,12.787-12.637c3.005,0,5.766,1.067,7.957,2.79
		c0.406,0.328,1.056,0.287,1.381-0.205c0.365-0.369,0.283-1.066-0.162-1.436c-2.478-1.929-5.685-3.159-9.176-3.159
		C317.953,0.291,311.336,6.731,311.336,14.896"/>
	<path fill="none" stroke="#ED6E1C" stroke-width="0.5" d="M409.213,11.245c3.654,0,6.82,2.749,7.47,6.523h-15.061
		C402.352,13.953,405.478,11.245,409.213,11.245z M409.213,29.38c3.37,0,6.333-1.805,8.038-4.554
		c0.284-0.493,0.122-1.067-0.325-1.396c-0.406-0.246-1.015-0.164-1.299,0.328c-1.339,2.257-3.775,3.652-6.414,3.652
		c-4.101,0-7.51-3.324-7.713-7.714h16.318c0.528,0,0.976-0.369,0.976-0.902v-0.123v-0.041c-0.406-5.252-4.466-9.355-9.581-9.355
		c-5.359,0-9.662,4.514-9.662,10.094C399.551,24.867,403.854,29.38,409.213,29.38z M388.549,8.866c0,3.363-2.679,6.112-5.967,6.194
		h-0.366h-6.82V2.671h7.023C385.789,2.671,388.549,5.42,388.549,8.866z M388.874,27.616c0.446,0.901,1.299,1.313,1.827,1.313h0.081
		c0.243,0,0.446-0.041,0.486-0.041c0.528-0.206,0.772-0.78,0.65-1.313c-0.162-0.452-0.65-0.698-1.096-0.657
		c-0.041-0.041-0.244-0.205-0.406-0.697c-0.203-0.616-0.366-1.641-0.366-3.324c0-3.24-1.948-5.333-3.816-6.399
		c-0.161-0.082-0.283-0.123-0.405-0.205c2.761-1.313,4.669-4.145,4.669-7.426c0-4.555-3.613-8.206-8.079-8.206h-7.916h-0.122H374.3
		c-0.487,0.041-0.893,0.493-0.893,0.984v26.75c0,0.534,0.446,0.985,0.974,0.985c0.569,0,1.015-0.451,1.015-0.985V17.03h6.902
		c0.04,0,0.081,0.041,0.203,0.083c0.526,0.082,2.028,0.532,3.288,1.436c1.258,0.943,2.313,2.256,2.313,4.348
		C388.103,25.317,388.387,26.672,388.874,27.616z M353.19,27.411c-4.06,0-7.47-3.57-7.47-8.083c0-4.514,3.41-8.124,7.47-8.124
		c4.101,0,7.47,3.61,7.47,8.124C360.66,23.841,357.291,27.411,353.19,27.411z M361.635,9.275c-0.528,0-0.975,0.41-0.975,0.985v2.954
		c-1.705-2.38-4.426-3.939-7.47-3.939c-5.236,0-9.419,4.555-9.419,10.053s4.183,10.052,9.419,10.052c3.044,0,5.765-1.6,7.47-3.98
		v2.995c0,0.534,0.446,0.985,0.975,0.985c0.527,0,0.974-0.451,0.974-0.985V10.261C362.608,9.686,362.162,9.275,361.635,9.275z
		 M311.336,14.896L311.336,14.896c0,8,6.617,14.483,14.776,14.483c3.491,0,6.698-1.19,9.176-3.118
		c0.445-0.328,0.527-1.066,0.122-1.436c-0.285-0.493-0.935-0.575-1.422-0.246c-2.11,1.805-4.871,2.79-7.876,2.79
		c-7.104,0-12.787-5.621-12.787-12.474c0-7.016,5.684-12.637,12.787-12.637c3.005,0,5.766,1.067,7.957,2.79
		c0.406,0.328,1.056,0.287,1.381-0.205c0.365-0.369,0.283-1.066-0.162-1.436c-2.478-1.929-5.685-3.159-9.176-3.159
		C317.953,0.291,311.336,6.731,311.336,14.896z"/>
	<path fill="#1A2542" d="M288.928,26.507L288.928,26.507c1.62,1.313,4.131,2.832,7.33,2.873c1.943,0,3.563-0.575,4.94-1.601
		c1.336-1.025,2.268-2.38,2.268-4.063s-0.932-3.242-2.228-4.104c-1.376-0.78-2.915-1.354-4.818-1.642h-0.081
		c-1.823-0.288-3.159-0.779-4.05-1.396c-0.77-0.615-1.135-1.19-1.135-2.01c0-0.821,0.447-1.643,1.257-2.299
		c0.85-0.697,2.146-1.148,3.766-1.148c1.943,0,3.401,1.025,4.859,2.01c0.445,0.288,1.053,0.165,1.336-0.287
		c0.284-0.451,0.162-1.066-0.283-1.395c-1.539-0.985-3.361-2.176-5.912-2.176c-2.024,0-3.685,0.533-4.86,1.354
		c-1.254,0.944-2.146,2.339-2.146,3.94c0,1.559,0.892,2.871,2.146,3.61c1.135,0.821,2.713,1.231,4.496,1.56l0.08,0.041
		c1.944,0.329,3.361,0.82,4.213,1.478c1.012,0.861,1.376,1.519,1.417,2.462c0,0.903-0.527,1.805-1.498,2.462
		c-0.892,0.739-2.229,1.231-3.767,1.231c-2.511,0-4.697-1.313-6.074-2.339c-0.445-0.369-1.053-0.287-1.377,0.123
		S288.523,26.138,288.928,26.507 M276.375,4.635L276.375,4.635c0,0.574,0.445,1.067,0.973,1.067c0.566,0,1.012-0.493,1.012-1.067
		V3.691c0-0.533-0.445-0.985-1.012-0.985c-0.527,0-0.973,0.452-0.973,0.985V4.635z M276.375,28.395L276.375,28.395
		c0,0.533,0.445,0.985,0.973,0.985c0.566,0,1.012-0.452,1.012-0.985V10.257c0-0.575-0.445-0.985-1.012-0.985
		c-0.527,0-0.973,0.41-0.973,0.985V28.395z M252.688,26.507L252.688,26.507c1.619,1.313,4.129,2.832,7.328,2.873
		c1.944,0,3.564-0.575,4.941-1.601c1.336-1.025,2.268-2.38,2.268-4.063s-0.932-3.242-2.228-4.104
		c-1.377-0.78-2.915-1.354-4.819-1.642h-0.08c-1.822-0.288-3.158-0.779-4.05-1.396c-0.769-0.615-1.134-1.19-1.134-2.01
		c0-0.821,0.445-1.643,1.255-2.299c0.851-0.697,2.147-1.148,3.767-1.148c1.943,0,3.401,1.025,4.859,2.01
		c0.445,0.288,1.053,0.165,1.336-0.287c0.283-0.451,0.162-1.066-0.283-1.395c-1.539-0.985-3.361-2.176-5.912-2.176
		c-2.024,0-3.686,0.533-4.859,1.354c-1.256,0.944-2.146,2.339-2.146,3.94c0,1.559,0.891,2.871,2.146,3.61
		c1.134,0.821,2.713,1.231,4.494,1.56l0.082,0.041c1.943,0.329,3.361,0.82,4.211,1.478c1.013,0.861,1.377,1.519,1.418,2.462
		c0,0.903-0.527,1.805-1.499,2.462c-0.89,0.739-2.228,1.231-3.767,1.231c-2.51,0-4.697-1.313-6.074-2.339
		c-0.444-0.369-1.053-0.287-1.375,0.123C252.242,25.604,252.282,26.138,252.688,26.507 M227.176,19.326L227.176,19.326
		c0-4.474,3.401-8.125,7.451-8.125c4.049,0,7.451,3.651,7.451,8.125c0,4.473-3.402,8.084-7.451,8.084
		C230.577,27.41,227.176,23.799,227.176,19.326 M225.232,19.326L225.232,19.326c0,5.458,4.211,10.054,9.395,10.054
		c5.223,0,9.395-4.596,9.395-10.054s-4.172-10.055-9.395-10.055C229.443,9.271,225.232,13.868,225.232,19.326 M212.355,4.635
		L212.355,4.635c0,0.574,0.445,1.067,0.972,1.067c0.567,0,1.013-0.493,1.013-1.067V3.691c0-0.533-0.445-0.985-1.013-0.985
		c-0.526,0-0.972,0.452-0.972,0.985V4.635z M212.355,28.395L212.355,28.395c0,0.533,0.445,0.985,0.972,0.985
		c0.567,0,1.013-0.452,1.013-0.985V10.257c0-0.575-0.445-0.985-1.013-0.985c-0.526,0-0.972,0.41-0.972,0.985V28.395z
		 M192.068,28.395c0,0.575,0.446,0.985,1.013,0.985c0.486,0,0.931-0.41,0.931-0.985v-8.822c0-0.082,0-0.164,0.081-0.328
		c0.283-0.821,1.053-2.873,2.389-4.678c1.377-1.807,3.159-3.283,5.75-3.283c0.527,0,0.972-0.452,0.972-0.985
		c0-0.575-0.445-0.985-0.972-0.985c-3.806,0-6.438,2.545-7.937,4.925c-0.121,0.165-0.202,0.329-0.283,0.492v-4.432
		c0-0.575-0.445-0.985-0.931-0.985c-0.567,0-1.013,0.41-1.013,0.985V28.395z M182.188,9.271h-2.551V1.803
		c0-0.492-0.527-0.984-1.053-0.984c-0.486,0-0.972,0.492-0.972,0.984v7.469h-2.47c-0.972,0-0.972,0.492-0.972,0.985
		c0,0.492,0,0.985,0.972,0.985h2.47v14.649c0,2.012,1.498,3.488,3.482,3.488c0.486,0,1.013-0.493,1.013-0.985
		c0-0.491-0.527-1.025-1.013-1.025c-0.486,0-1.457-0.492-1.457-1.478V11.242h2.551c0.486,0,0.972-0.493,0.972-0.985
		C183.16,9.764,182.674,9.271,182.188,9.271 M158.944,11.242c3.645,0,6.803,2.749,7.451,6.524h-15.023
		C152.101,13.95,155.219,11.242,158.944,11.242 M158.944,29.38c3.361,0,6.317-1.806,8.018-4.555
		c0.283-0.493,0.121-1.067-0.324-1.396c-0.405-0.247-1.012-0.165-1.296,0.328c-1.336,2.257-3.766,3.652-6.398,3.652
		c-4.09,0-7.491-3.324-7.694-7.715h16.279c0.526,0,0.972-0.369,0.972-0.903v-0.123v-0.041c-0.405-5.252-4.455-9.356-9.557-9.356
		c-5.345,0-9.637,4.515-9.637,10.096C149.307,24.866,153.599,29.38,158.944,29.38 M138.131,28.436c0,0.492,0.405,0.944,0.931,0.944
		c0.567,0,0.972-0.452,0.972-0.944V17.479c0-4.514-3.604-8.166-8.058-8.166c-3.037,0-5.71,1.725-7.127,4.269
		c-1.377-2.544-4.009-4.269-7.087-4.269c-2.47,0-4.656,1.108-6.114,2.873v-1.929c0-0.534-0.405-0.944-0.972-0.944
		c-0.486,0-0.931,0.41-0.931,0.944v6.895v0.327v10.957v0.205c0.121,0.37,0.445,0.698,0.809,0.739h0.122h0.121
		c0.081,0,0.122,0,0.162-0.041c0.081,0,0.203-0.082,0.243-0.123c0.284-0.164,0.446-0.452,0.446-0.78V17.479
		c0-3.405,2.713-6.236,6.114-6.236c3.402,0,6.115,2.831,6.115,6.236v10.957v0.082v0.123c0.04,0.041,0.04,0.082,0.04,0.123
		c0.041,0.041,0.041,0.082,0.041,0.082c0.04,0.041,0.04,0.041,0.04,0.082c0.041,0,0.041,0.042,0.081,0.083l0.122,0.123
		c0.04,0.041,0.081,0.082,0.121,0.082c0.081,0.041,0.162,0.123,0.243,0.123c0,0,0.041,0.041,0.081,0.041h0.081h0.122
		c0.162,0,0.324-0.041,0.486-0.123c0.202-0.123,0.405-0.287,0.486-0.534v-0.082c0,0,0.04-0.041,0.04-0.082v-0.123V17.479
		c0-3.405,2.754-6.236,6.115-6.236c3.401,0,6.074,2.831,6.155,6.236V28.436z M82.978,19.326L82.978,19.326
		c0-4.474,3.402-8.125,7.451-8.125c4.049,0,7.451,3.651,7.451,8.125c0,4.473-3.402,8.084-7.451,8.084
		C86.38,27.41,82.978,23.799,82.978,19.326 M81.034,19.326L81.034,19.326c0,5.458,4.212,10.054,9.395,10.054
		c5.224,0,9.395-4.596,9.395-10.054S95.653,9.271,90.429,9.271C85.246,9.271,81.034,13.868,81.034,19.326 M61.031,27.369
		c-4.171,0-7.613-3.57-7.613-8.002c0-4.474,3.442-8.084,7.613-8.084c4.09,0,7.451,3.446,7.613,7.756v0.656
		C68.482,23.963,65.121,27.369,61.031,27.369 M68.644,28.395c0,0.533,0.445,0.985,1.012,0.985c0.527,0,0.972-0.452,0.972-0.985
		v-9.027v-0.41V1.639c0-0.532-0.445-0.984-0.972-0.984c-0.567,0-1.012,0.452-1.012,0.984v11.572
		c-1.741-2.38-4.495-3.939-7.613-3.939c-5.345,0-9.597,4.515-9.597,10.096c0,5.499,4.252,10.013,9.597,10.013
		c3.118,0,5.872-1.518,7.613-3.898V28.395z M40.46,28.395c0,0.575,0.445,0.985,0.972,0.985c0.526,0,0.972-0.41,0.972-0.985V17.479
		c0-4.473-3.604-8.166-8.059-8.166c-2.47,0-4.697,1.149-6.155,2.914v-1.929c0-0.534-0.405-0.985-0.931-0.985
		c-0.567,0-0.972,0.451-0.972,0.985v6.854v0.327v10.916v0.246c0,0,0.041,0.041,0.041,0.082s0,0.082,0.04,0.123
		c0.122,0.247,0.364,0.452,0.648,0.534h0.243c0.283,0,0.567-0.123,0.729-0.369c0.121-0.124,0.162-0.288,0.202-0.452v-0.164V17.479
		c0.081-3.405,2.794-6.195,6.155-6.195c3.402,0,6.115,2.79,6.115,6.195V28.395z M0.25,28.395c0,0.533,0.405,0.944,0.891,0.985h0.081
		h0.121H15.8c0.567,0,0.972-0.452,0.972-0.985c0-0.574-0.405-1.025-0.972-1.025H2.234V16.043h11.865
		c0.526,0,0.972-0.451,0.972-0.985c0-0.573-0.446-1.025-0.972-1.025H2.234V2.665H15.8c0.567,0,0.972-0.451,0.972-1.026
		c0-0.532-0.405-0.984-0.972-0.984H1.303H1.222c-0.527,0-0.972,0.452-0.972,0.984V28.395z"/>
	<path fill="none" stroke="#1A2542" stroke-width="0.5" d="M288.928,26.507L288.928,26.507c1.62,1.313,4.131,2.832,7.33,2.873
		c1.943,0,3.563-0.575,4.94-1.601c1.336-1.025,2.268-2.38,2.268-4.063s-0.932-3.242-2.228-4.104
		c-1.376-0.78-2.915-1.354-4.818-1.642h-0.081c-1.823-0.288-3.159-0.779-4.05-1.396c-0.77-0.615-1.135-1.19-1.135-2.01
		c0-0.821,0.447-1.643,1.257-2.299c0.85-0.697,2.146-1.148,3.766-1.148c1.943,0,3.401,1.025,4.859,2.01
		c0.445,0.288,1.053,0.165,1.336-0.287c0.284-0.451,0.162-1.066-0.283-1.395c-1.539-0.985-3.361-2.176-5.912-2.176
		c-2.024,0-3.685,0.533-4.86,1.354c-1.254,0.944-2.146,2.339-2.146,3.94c0,1.559,0.892,2.871,2.146,3.61
		c1.135,0.821,2.713,1.231,4.496,1.56l0.08,0.041c1.944,0.329,3.361,0.82,4.213,1.478c1.012,0.861,1.376,1.519,1.417,2.462
		c0,0.903-0.527,1.805-1.498,2.462c-0.892,0.739-2.229,1.231-3.767,1.231c-2.511,0-4.697-1.313-6.074-2.339
		c-0.445-0.369-1.053-0.287-1.377,0.123S288.523,26.138,288.928,26.507z M276.375,4.635L276.375,4.635
		c0,0.574,0.445,1.067,0.973,1.067c0.566,0,1.012-0.493,1.012-1.067V3.691c0-0.533-0.445-0.985-1.012-0.985
		c-0.527,0-0.973,0.452-0.973,0.985V4.635z M276.375,28.395L276.375,28.395c0,0.533,0.445,0.985,0.973,0.985
		c0.566,0,1.012-0.452,1.012-0.985V10.257c0-0.575-0.445-0.985-1.012-0.985c-0.527,0-0.973,0.41-0.973,0.985V28.395z
		 M252.688,26.507L252.688,26.507c1.619,1.313,4.129,2.832,7.328,2.873c1.944,0,3.564-0.575,4.941-1.601
		c1.336-1.025,2.268-2.38,2.268-4.063s-0.932-3.242-2.228-4.104c-1.377-0.78-2.915-1.354-4.819-1.642h-0.08
		c-1.822-0.288-3.158-0.779-4.05-1.396c-0.769-0.615-1.134-1.19-1.134-2.01c0-0.821,0.445-1.643,1.255-2.299
		c0.851-0.697,2.147-1.148,3.767-1.148c1.943,0,3.401,1.025,4.859,2.01c0.445,0.288,1.053,0.165,1.336-0.287
		c0.283-0.451,0.162-1.066-0.283-1.395c-1.539-0.985-3.361-2.176-5.912-2.176c-2.024,0-3.686,0.533-4.859,1.354
		c-1.256,0.944-2.146,2.339-2.146,3.94c0,1.559,0.891,2.871,2.146,3.61c1.134,0.821,2.713,1.231,4.494,1.56l0.082,0.041
		c1.943,0.329,3.361,0.82,4.211,1.478c1.013,0.861,1.377,1.519,1.418,2.462c0,0.903-0.527,1.805-1.499,2.462
		c-0.89,0.739-2.228,1.231-3.767,1.231c-2.51,0-4.697-1.313-6.074-2.339c-0.444-0.369-1.053-0.287-1.375,0.123
		C252.242,25.604,252.282,26.138,252.688,26.507z M227.176,19.326L227.176,19.326c0-4.474,3.401-8.125,7.451-8.125
		c4.049,0,7.451,3.651,7.451,8.125c0,4.473-3.402,8.084-7.451,8.084C230.577,27.41,227.176,23.799,227.176,19.326z M225.232,19.326
		L225.232,19.326c0,5.458,4.211,10.054,9.395,10.054c5.223,0,9.395-4.596,9.395-10.054s-4.172-10.055-9.395-10.055
		C229.443,9.271,225.232,13.868,225.232,19.326z M212.355,4.635L212.355,4.635c0,0.574,0.445,1.067,0.972,1.067
		c0.567,0,1.013-0.493,1.013-1.067V3.691c0-0.533-0.445-0.985-1.013-0.985c-0.526,0-0.972,0.452-0.972,0.985V4.635z M212.355,28.395
		L212.355,28.395c0,0.533,0.445,0.985,0.972,0.985c0.567,0,1.013-0.452,1.013-0.985V10.257c0-0.575-0.445-0.985-1.013-0.985
		c-0.526,0-0.972,0.41-0.972,0.985V28.395z M192.068,28.395c0,0.575,0.446,0.985,1.013,0.985c0.486,0,0.931-0.41,0.931-0.985v-8.822
		c0-0.082,0-0.164,0.081-0.328c0.283-0.821,1.053-2.873,2.389-4.678c1.377-1.807,3.159-3.283,5.75-3.283
		c0.527,0,0.972-0.452,0.972-0.985c0-0.575-0.445-0.985-0.972-0.985c-3.806,0-6.438,2.545-7.937,4.925
		c-0.121,0.165-0.202,0.329-0.283,0.492v-4.432c0-0.575-0.445-0.985-0.931-0.985c-0.567,0-1.013,0.41-1.013,0.985V28.395z
		 M182.188,9.271h-2.551V1.803c0-0.492-0.527-0.984-1.053-0.984c-0.486,0-0.972,0.492-0.972,0.984v7.469h-2.47
		c-0.972,0-0.972,0.492-0.972,0.985c0,0.492,0,0.985,0.972,0.985h2.47v14.649c0,2.012,1.498,3.488,3.482,3.488
		c0.486,0,1.013-0.493,1.013-0.985c0-0.491-0.527-1.025-1.013-1.025c-0.486,0-1.457-0.492-1.457-1.478V11.242h2.551
		c0.486,0,0.972-0.493,0.972-0.985C183.16,9.764,182.674,9.271,182.188,9.271z M158.944,11.242c3.645,0,6.803,2.749,7.451,6.524
		h-15.023C152.101,13.95,155.219,11.242,158.944,11.242z M158.944,29.38c3.361,0,6.317-1.806,8.018-4.555
		c0.283-0.493,0.121-1.067-0.324-1.396c-0.405-0.247-1.012-0.165-1.296,0.328c-1.336,2.257-3.766,3.652-6.398,3.652
		c-4.09,0-7.491-3.324-7.694-7.715h16.279c0.526,0,0.972-0.369,0.972-0.903v-0.123v-0.041c-0.405-5.252-4.455-9.356-9.557-9.356
		c-5.345,0-9.637,4.515-9.637,10.096C149.307,24.866,153.599,29.38,158.944,29.38z M138.131,28.436c0,0.492,0.405,0.944,0.931,0.944
		c0.567,0,0.972-0.452,0.972-0.944V17.479c0-4.514-3.604-8.166-8.058-8.166c-3.037,0-5.71,1.725-7.127,4.269
		c-1.377-2.544-4.009-4.269-7.087-4.269c-2.47,0-4.656,1.108-6.114,2.873v-1.929c0-0.534-0.405-0.944-0.972-0.944
		c-0.486,0-0.931,0.41-0.931,0.944v6.895v0.327v10.957v0.205c0.121,0.37,0.445,0.698,0.809,0.739h0.122h0.121
		c0.081,0,0.122,0,0.162-0.041c0.081,0,0.203-0.082,0.243-0.123c0.284-0.164,0.446-0.452,0.446-0.78V17.479
		c0-3.405,2.713-6.236,6.114-6.236c3.402,0,6.115,2.831,6.115,6.236v10.957v0.082v0.123c0.04,0.041,0.04,0.082,0.04,0.123
		c0.041,0.041,0.041,0.082,0.041,0.082c0.04,0.041,0.04,0.041,0.04,0.082c0.041,0,0.041,0.042,0.081,0.083l0.122,0.123
		c0.04,0.041,0.081,0.082,0.121,0.082c0.081,0.041,0.162,0.123,0.243,0.123c0,0,0.041,0.041,0.081,0.041h0.081h0.122
		c0.162,0,0.324-0.041,0.486-0.123c0.202-0.123,0.405-0.287,0.486-0.534v-0.082c0,0,0.04-0.041,0.04-0.082v-0.123V17.479
		c0-3.405,2.754-6.236,6.115-6.236c3.401,0,6.074,2.831,6.155,6.236V28.436z M82.978,19.326L82.978,19.326
		c0-4.474,3.402-8.125,7.451-8.125c4.049,0,7.451,3.651,7.451,8.125c0,4.473-3.402,8.084-7.451,8.084
		C86.38,27.41,82.978,23.799,82.978,19.326z M81.034,19.326L81.034,19.326c0,5.458,4.212,10.054,9.395,10.054
		c5.224,0,9.395-4.596,9.395-10.054S95.653,9.271,90.429,9.271C85.246,9.271,81.034,13.868,81.034,19.326z M61.031,27.369
		c-4.171,0-7.613-3.57-7.613-8.002c0-4.474,3.442-8.084,7.613-8.084c4.09,0,7.451,3.446,7.613,7.756v0.656
		C68.482,23.963,65.121,27.369,61.031,27.369z M68.644,28.395c0,0.533,0.445,0.985,1.012,0.985c0.527,0,0.972-0.452,0.972-0.985
		v-9.027v-0.41V1.639c0-0.532-0.445-0.984-0.972-0.984c-0.567,0-1.012,0.452-1.012,0.984v11.572
		c-1.741-2.38-4.495-3.939-7.613-3.939c-5.345,0-9.597,4.515-9.597,10.096c0,5.499,4.252,10.013,9.597,10.013
		c3.118,0,5.872-1.518,7.613-3.898V28.395z M40.46,28.395c0,0.575,0.445,0.985,0.972,0.985c0.526,0,0.972-0.41,0.972-0.985V17.479
		c0-4.473-3.604-8.166-8.059-8.166c-2.47,0-4.697,1.149-6.155,2.914v-1.929c0-0.534-0.405-0.985-0.931-0.985
		c-0.567,0-0.972,0.451-0.972,0.985v6.854v0.327v10.916v0.246c0,0,0.041,0.041,0.041,0.082s0,0.082,0.04,0.123
		c0.122,0.247,0.364,0.452,0.648,0.534h0.243c0.283,0,0.567-0.123,0.729-0.369c0.121-0.124,0.162-0.288,0.202-0.452v-0.164V17.479
		c0.081-3.405,2.794-6.195,6.155-6.195c3.402,0,6.115,2.79,6.115,6.195V28.395z M0.25,28.395c0,0.533,0.405,0.944,0.891,0.985h0.081
		h0.121H15.8c0.567,0,0.972-0.452,0.972-0.985c0-0.574-0.405-1.025-0.972-1.025H2.234V16.043h11.865
		c0.526,0,0.972-0.451,0.972-0.985c0-0.573-0.446-1.025-0.972-1.025H2.234V2.665H15.8c0.567,0,0.972-0.451,0.972-1.026
		c0-0.532-0.405-0.984-0.972-0.984H1.303H1.222c-0.527,0-0.972,0.452-0.972,0.984V28.395z"/>
	<path fill="#1A2542" d="M416.314,129.29c0,0.463,0.385,0.854,0.841,0.854c0.49,0,0.875-0.391,0.875-0.854v-9.71
		c0-4.02-3.222-6.865-7.18-6.865c-2.171,0-4.132,0.996-5.428,2.561v-9.177c0-0.462-0.387-0.853-0.876-0.853
		c-0.455,0-0.841,0.391-0.841,0.853v13.196v0.285v9.71c0,0.106,0,0.178,0.035,0.285c0.035,0.105,0.07,0.178,0.141,0.283
		c0.175,0.179,0.42,0.285,0.665,0.285h0.104h0.07c0.035,0,0.069-0.036,0.069-0.036c0.245-0.07,0.422-0.213,0.526-0.427
		c0.035-0.035,0.035-0.071,0.07-0.142c0-0.035,0.035-0.071,0.035-0.143v-0.106v-9.71c0-3.06,2.45-5.122,5.428-5.122
		c3.012,0,5.464,2.063,5.464,5.122V129.29z M389.031,130.144L389.031,130.144c2.031,0,3.957-0.712,5.394-1.85
		c0.421-0.32,0.49-0.854,0.175-1.245c-0.28-0.32-0.771-0.426-1.155-0.142c-1.226,0.96-2.767,1.529-4.413,1.529
		c-3.993,0-7.145-3.131-7.145-7.043c0-3.842,3.151-7.007,7.145-7.007c1.646,0,3.188,0.569,4.413,1.565
		c0.385,0.283,0.875,0.178,1.155-0.143c0.315-0.392,0.246-0.925-0.105-1.174c-1.506-1.21-3.432-1.921-5.463-1.921
		c-4.903,0-8.826,3.841-8.826,8.679C380.205,126.302,384.128,130.144,389.031,130.144 M364.654,129.29
		c0,0.498,0.385,0.854,0.876,0.854c0.42,0,0.806-0.355,0.806-0.854v-7.647c0-0.071,0-0.142,0.069-0.285
		c0.246-0.711,0.911-2.489,2.067-4.055c1.19-1.565,2.731-2.845,4.973-2.845c0.455,0,0.841-0.392,0.841-0.854
		c0-0.498-0.386-0.853-0.841-0.853c-3.292,0-5.568,2.205-6.865,4.268c-0.104,0.143-0.175,0.284-0.244,0.427v-3.842
		c0-0.498-0.386-0.853-0.806-0.853c-0.491,0-0.876,0.354-0.876,0.853V129.29z M346.969,128.437c-3.503,0-6.445-3.095-6.445-7.008
		c0-3.912,2.942-7.042,6.445-7.042c3.537,0,6.443,3.13,6.443,7.042C353.412,125.342,350.506,128.437,346.969,128.437
		 M354.253,112.715c-0.455,0-0.841,0.355-0.841,0.854v2.562c-1.471-2.063-3.817-3.415-6.443-3.415c-4.52,0-8.126,3.948-8.126,8.714
		c0,4.767,3.606,8.715,8.126,8.715c2.626,0,4.973-1.387,6.443-3.45v2.597c0,0.463,0.386,0.854,0.841,0.854
		c0.456,0,0.841-0.391,0.841-0.854v-15.722C355.094,113.07,354.709,112.715,354.253,112.715 M324.202,114.422
		c3.152,0,5.885,2.383,6.445,5.656h-12.994C318.283,116.77,320.98,114.422,324.202,114.422 M324.202,130.144
		c2.907,0,5.464-1.564,6.936-3.948c0.245-0.427,0.104-0.925-0.28-1.21c-0.35-0.213-0.876-0.142-1.121,0.285
		c-1.156,1.956-3.257,3.166-5.534,3.166c-3.537,0-6.479-2.882-6.653-6.687h14.079c0.456,0,0.841-0.321,0.841-0.783v-0.107v-0.034
		c-0.351-4.554-3.854-8.11-8.267-8.11c-4.623,0-8.335,3.913-8.335,8.75C315.867,126.23,319.579,130.144,324.202,130.144
		 M296.5,127.653L296.5,127.653c1.4,1.139,3.571,2.454,6.339,2.49c1.681,0,3.082-0.498,4.272-1.387
		c1.156-0.89,1.961-2.063,1.961-3.522c0-1.458-0.805-2.81-1.926-3.557c-1.191-0.675-2.522-1.173-4.168-1.422h-0.07
		c-1.576-0.249-2.731-0.676-3.502-1.21c-0.666-0.533-0.98-1.031-0.98-1.743c0-0.711,0.385-1.422,1.086-1.991
		c0.734-0.604,1.855-0.996,3.257-0.996c1.681,0,2.942,0.89,4.203,1.743c0.385,0.249,0.911,0.143,1.156-0.249
		c0.244-0.392,0.14-0.925-0.245-1.21c-1.331-0.853-2.907-1.885-5.114-1.885c-1.751,0-3.188,0.462-4.203,1.174
		c-1.085,0.818-1.856,2.027-1.856,3.414c0,1.352,0.771,2.49,1.856,3.131c0.981,0.711,2.347,1.067,3.888,1.352l0.07,0.035
		c1.681,0.284,2.907,0.712,3.642,1.28c0.876,0.747,1.191,1.316,1.227,2.134c0,0.783-0.455,1.565-1.296,2.135
		c-0.771,0.641-1.926,1.067-3.257,1.067c-2.171,0-4.063-1.139-5.253-2.027c-0.387-0.32-0.912-0.249-1.191,0.106
		C296.114,126.871,296.149,127.334,296.5,127.653 M281.09,114.422c3.152,0,5.884,2.383,6.443,5.656h-12.994
		C275.17,116.77,277.867,114.422,281.09,114.422 M281.09,130.144c2.906,0,5.463-1.564,6.934-3.948
		c0.245-0.427,0.105-0.925-0.279-1.21c-0.351-0.213-0.875-0.142-1.121,0.285c-1.156,1.956-3.258,3.166-5.533,3.166
		c-3.539,0-6.48-2.882-6.655-6.687h14.08c0.455,0,0.84-0.321,0.84-0.783v-0.107v-0.034c-0.351-4.554-3.853-8.11-8.265-8.11
		c-4.623,0-8.336,3.913-8.336,8.75C272.754,126.23,276.467,130.144,281.09,130.144 M263.121,112.358
		c0,2.917-2.311,5.301-5.147,5.371h-0.315h-5.884v-10.742h6.06C260.74,106.987,263.121,109.372,263.121,112.358 M263.401,128.613
		c0.386,0.783,1.121,1.14,1.577,1.14h0.07c0.209,0,0.385-0.036,0.42-0.036c0.455-0.178,0.664-0.676,0.56-1.138
		c-0.14-0.392-0.56-0.605-0.944-0.569c-0.035-0.036-0.211-0.178-0.352-0.605c-0.175-0.533-0.314-1.423-0.314-2.881
		c0-2.81-1.682-4.624-3.293-5.549c-0.14-0.071-0.244-0.106-0.35-0.178c2.381-1.138,4.027-3.592,4.027-6.438
		c0-3.947-3.117-7.112-6.969-7.112h-6.83h-0.105h-0.07c-0.42,0.034-0.771,0.426-0.771,0.853v23.191c0,0.463,0.386,0.854,0.841,0.854
		c0.49,0,0.876-0.391,0.876-0.854v-9.853h5.954c0.035,0,0.07,0.035,0.175,0.071c0.455,0.071,1.751,0.462,2.837,1.245
		c1.086,0.817,1.996,1.956,1.996,3.77C262.736,126.623,262.981,127.796,263.401,128.613 M209.186,121.999
		c0,4.48,3.607,8.145,8.021,8.145c4.412,0,8.02-3.664,8.02-8.145c0-0.57-0.07-1.14-0.176-1.672c0.351-0.143,0.666-0.32,1.017-0.569
		c0.735-0.534,1.261-1.494,1.19-2.668c0-0.391-0.035-0.818-0.105-1.316c-0.14-0.427-0.561-0.747-1.05-0.64
		c-0.456,0.106-0.771,0.569-0.631,1.031c0.069,0.355,0.069,0.676,0.069,0.925c0,0.747-0.209,1.032-0.49,1.315
		c-0.244,0.179-0.596,0.32-0.98,0.392h-0.244h-0.105h-0.21c-0.386-0.071-0.841-0.071-1.226-0.071c-2.522,0-4.134,0.641-5.113,1.636
		c-1.017,0.962-1.227,2.171-1.227,3.024c0,0.711,0.141,1.245,0.176,1.28c0.104,0.391,0.42,0.604,0.84,0.604
		c0.069,0,0.14,0,0.246-0.036c0.42-0.142,0.664-0.604,0.56-1.102c-0.035-0.143-0.104-0.392-0.104-0.747
		c0-0.569,0.139-1.245,0.699-1.814c0.561-0.568,1.682-1.103,3.924-1.103c0.314,0,0.664,0,1.051,0.071
		c0.104,0.463,0.175,0.961,0.175,1.459c0,3.521-2.837,6.401-6.304,6.401c-3.469,0-6.306-2.881-6.306-6.401
		c0-2.49,1.366-4.589,3.397-5.691c0.105-0.036,0.176-0.072,0.281-0.143c0.14-0.106,0.279-0.249,0.314-0.428
		c0.175-0.354,0.035-0.781-0.28-1.03c-1.051-0.747-1.786-2.028-1.786-3.45c0-2.383,1.892-4.27,4.202-4.27
		c2.312,0,4.203,1.887,4.203,4.27c0,0.462,0.386,0.853,0.841,0.853c0.49,0,0.875-0.391,0.875-0.853c0-3.344-2.66-6.011-5.919-6.011
		c-3.257,0-5.919,2.667-5.919,6.011c0,1.529,0.561,2.952,1.541,4.019C210.551,116.77,209.186,119.26,209.186,121.999
		 M181.447,114.422c3.152,0,5.884,2.383,6.444,5.656h-12.994C175.528,116.77,178.226,114.422,181.447,114.422 M181.447,130.144
		c2.907,0,5.464-1.564,6.935-3.948c0.245-0.427,0.105-0.925-0.281-1.21c-0.35-0.213-0.875-0.142-1.12,0.285
		c-1.156,1.956-3.258,3.166-5.534,3.166c-3.537,0-6.479-2.882-6.655-6.687h14.08c0.455,0,0.841-0.321,0.841-0.783v-0.107v-0.034
		c-0.351-4.554-3.853-8.11-8.266-8.11c-4.623,0-8.336,3.913-8.336,8.75C173.111,126.23,176.825,130.144,181.447,130.144
		 M158.437,129.29c0,0.498,0.385,0.854,0.876,0.854c0.42,0,0.805-0.355,0.805-0.854v-7.647c0-0.071,0-0.142,0.07-0.285
		c0.245-0.711,0.911-2.489,2.067-4.055c1.19-1.565,2.732-2.845,4.973-2.845c0.455,0,0.841-0.392,0.841-0.854
		c0-0.498-0.386-0.853-0.841-0.853c-3.292,0-5.569,2.205-6.865,4.268c-0.105,0.143-0.175,0.284-0.245,0.427v-3.842
		c0-0.498-0.385-0.853-0.805-0.853c-0.491,0-0.876,0.354-0.876,0.853V129.29z M140.75,128.437c-3.502,0-6.444-3.095-6.444-7.008
		c0-3.912,2.942-7.042,6.444-7.042c3.538,0,6.445,3.13,6.445,7.042C147.194,125.342,144.288,128.437,140.75,128.437
		 M148.035,112.715c-0.455,0-0.84,0.355-0.84,0.854v2.562c-1.471-2.063-3.818-3.415-6.445-3.415c-4.518,0-8.125,3.948-8.125,8.714
		c0,4.767,3.607,8.715,8.125,8.715c2.627,0,4.974-1.387,6.445-3.45v2.597c0,0.463,0.385,0.854,0.84,0.854
		c0.456,0,0.841-0.391,0.841-0.854v-15.722C148.875,113.07,148.491,112.715,148.035,112.715 M104.5,117.588L104.5,117.588
		c0,6.936,5.709,12.556,12.749,12.556c3.012,0,5.779-1.032,7.915-2.703c0.385-0.285,0.455-0.925,0.105-1.245
		c-0.245-0.427-0.805-0.497-1.226-0.214c-1.821,1.565-4.203,2.419-6.794,2.419c-6.13,0-11.033-4.873-11.033-10.813
		c0-6.082,4.903-10.955,11.033-10.955c2.591,0,4.973,0.925,6.864,2.418c0.351,0.285,0.911,0.249,1.191-0.177
		c0.315-0.321,0.245-0.925-0.14-1.245c-2.136-1.672-4.903-2.739-7.915-2.739C110.209,104.925,104.5,110.51,104.5,117.588"/>
	<path fill="none" stroke="#1A2542" stroke-width="0.5" d="M416.314,129.29c0,0.463,0.385,0.854,0.841,0.854
		c0.49,0,0.875-0.391,0.875-0.854v-9.71c0-4.02-3.222-6.865-7.18-6.865c-2.171,0-4.132,0.996-5.428,2.561v-9.177
		c0-0.462-0.387-0.853-0.876-0.853c-0.455,0-0.841,0.391-0.841,0.853v13.196v0.285v9.71c0,0.106,0,0.178,0.035,0.285
		c0.035,0.105,0.07,0.178,0.141,0.283c0.175,0.179,0.42,0.285,0.665,0.285h0.104h0.07c0.035,0,0.069-0.036,0.069-0.036
		c0.245-0.07,0.422-0.213,0.526-0.427c0.035-0.035,0.035-0.071,0.07-0.142c0-0.035,0.035-0.071,0.035-0.143v-0.106v-9.71
		c0-3.06,2.45-5.122,5.428-5.122c3.012,0,5.464,2.063,5.464,5.122V129.29z M389.031,130.144L389.031,130.144
		c2.031,0,3.957-0.712,5.394-1.85c0.421-0.32,0.49-0.854,0.175-1.245c-0.28-0.32-0.771-0.426-1.155-0.142
		c-1.226,0.96-2.767,1.529-4.413,1.529c-3.993,0-7.145-3.131-7.145-7.043c0-3.842,3.151-7.007,7.145-7.007
		c1.646,0,3.188,0.569,4.413,1.565c0.385,0.283,0.875,0.178,1.155-0.143c0.315-0.392,0.246-0.925-0.105-1.174
		c-1.506-1.21-3.432-1.921-5.463-1.921c-4.903,0-8.826,3.841-8.826,8.679C380.205,126.302,384.128,130.144,389.031,130.144z
		 M364.654,129.29c0,0.498,0.385,0.854,0.876,0.854c0.42,0,0.806-0.355,0.806-0.854v-7.647c0-0.071,0-0.142,0.069-0.285
		c0.246-0.711,0.911-2.489,2.067-4.055c1.19-1.565,2.731-2.845,4.973-2.845c0.455,0,0.841-0.392,0.841-0.854
		c0-0.498-0.386-0.853-0.841-0.853c-3.292,0-5.568,2.205-6.865,4.268c-0.104,0.143-0.175,0.284-0.244,0.427v-3.842
		c0-0.498-0.386-0.853-0.806-0.853c-0.491,0-0.876,0.354-0.876,0.853V129.29z M346.969,128.437c-3.503,0-6.445-3.095-6.445-7.008
		c0-3.912,2.942-7.042,6.445-7.042c3.537,0,6.443,3.13,6.443,7.042C353.412,125.342,350.506,128.437,346.969,128.437z
		 M354.253,112.715c-0.455,0-0.841,0.355-0.841,0.854v2.562c-1.471-2.063-3.817-3.415-6.443-3.415c-4.52,0-8.126,3.948-8.126,8.714
		c0,4.767,3.606,8.715,8.126,8.715c2.626,0,4.973-1.387,6.443-3.45v2.597c0,0.463,0.386,0.854,0.841,0.854
		c0.456,0,0.841-0.391,0.841-0.854v-15.722C355.094,113.07,354.709,112.715,354.253,112.715z M324.202,114.422
		c3.152,0,5.885,2.383,6.445,5.656h-12.994C318.283,116.77,320.98,114.422,324.202,114.422z M324.202,130.144
		c2.907,0,5.464-1.564,6.936-3.948c0.245-0.427,0.104-0.925-0.28-1.21c-0.35-0.213-0.876-0.142-1.121,0.285
		c-1.156,1.956-3.257,3.166-5.534,3.166c-3.537,0-6.479-2.882-6.653-6.687h14.079c0.456,0,0.841-0.321,0.841-0.783v-0.107v-0.034
		c-0.351-4.554-3.854-8.11-8.267-8.11c-4.623,0-8.335,3.913-8.335,8.75C315.867,126.23,319.579,130.144,324.202,130.144z
		 M296.5,127.653L296.5,127.653c1.4,1.139,3.571,2.454,6.339,2.49c1.681,0,3.082-0.498,4.272-1.387
		c1.156-0.89,1.961-2.063,1.961-3.522c0-1.458-0.805-2.81-1.926-3.557c-1.191-0.675-2.522-1.173-4.168-1.422h-0.07
		c-1.576-0.249-2.731-0.676-3.502-1.21c-0.666-0.533-0.98-1.031-0.98-1.743c0-0.711,0.385-1.422,1.086-1.991
		c0.734-0.604,1.855-0.996,3.257-0.996c1.681,0,2.942,0.89,4.203,1.743c0.385,0.249,0.911,0.143,1.156-0.249
		c0.244-0.392,0.14-0.925-0.245-1.21c-1.331-0.853-2.907-1.885-5.114-1.885c-1.751,0-3.188,0.462-4.203,1.174
		c-1.085,0.818-1.856,2.027-1.856,3.414c0,1.352,0.771,2.49,1.856,3.131c0.981,0.711,2.347,1.067,3.888,1.352l0.07,0.035
		c1.681,0.284,2.907,0.712,3.642,1.28c0.876,0.747,1.191,1.316,1.227,2.134c0,0.783-0.455,1.565-1.296,2.135
		c-0.771,0.641-1.926,1.067-3.257,1.067c-2.171,0-4.063-1.139-5.253-2.027c-0.387-0.32-0.912-0.249-1.191,0.106
		C296.114,126.871,296.149,127.334,296.5,127.653z M281.09,114.422c3.152,0,5.884,2.383,6.443,5.656h-12.994
		C275.17,116.77,277.867,114.422,281.09,114.422z M281.09,130.144c2.906,0,5.463-1.564,6.934-3.948
		c0.245-0.427,0.105-0.925-0.279-1.21c-0.351-0.213-0.875-0.142-1.121,0.285c-1.156,1.956-3.258,3.166-5.533,3.166
		c-3.539,0-6.48-2.882-6.655-6.687h14.08c0.455,0,0.84-0.321,0.84-0.783v-0.107v-0.034c-0.351-4.554-3.853-8.11-8.265-8.11
		c-4.623,0-8.336,3.913-8.336,8.75C272.754,126.23,276.467,130.144,281.09,130.144z M263.121,112.358
		c0,2.917-2.311,5.301-5.147,5.371h-0.315h-5.884v-10.742h6.06C260.74,106.987,263.121,109.372,263.121,112.358z M263.401,128.613
		c0.386,0.783,1.121,1.14,1.577,1.14h0.07c0.209,0,0.385-0.036,0.42-0.036c0.455-0.178,0.664-0.676,0.56-1.138
		c-0.14-0.392-0.56-0.605-0.944-0.569c-0.035-0.036-0.211-0.178-0.352-0.605c-0.175-0.533-0.314-1.423-0.314-2.881
		c0-2.81-1.682-4.624-3.293-5.549c-0.14-0.071-0.244-0.106-0.35-0.178c2.381-1.138,4.027-3.592,4.027-6.438
		c0-3.947-3.117-7.112-6.969-7.112h-6.83h-0.105h-0.07c-0.42,0.034-0.771,0.426-0.771,0.853v23.191c0,0.463,0.386,0.854,0.841,0.854
		c0.49,0,0.876-0.391,0.876-0.854v-9.853h5.954c0.035,0,0.07,0.035,0.175,0.071c0.455,0.071,1.751,0.462,2.837,1.245
		c1.086,0.817,1.996,1.956,1.996,3.77C262.736,126.623,262.981,127.796,263.401,128.613z M209.186,121.999
		c0,4.48,3.607,8.145,8.021,8.145c4.412,0,8.02-3.664,8.02-8.145c0-0.57-0.07-1.14-0.176-1.672c0.351-0.143,0.666-0.32,1.017-0.569
		c0.735-0.534,1.261-1.494,1.19-2.668c0-0.391-0.035-0.818-0.105-1.316c-0.14-0.427-0.561-0.747-1.05-0.64
		c-0.456,0.106-0.771,0.569-0.631,1.031c0.069,0.355,0.069,0.676,0.069,0.925c0,0.747-0.209,1.032-0.49,1.315
		c-0.244,0.179-0.596,0.32-0.98,0.392h-0.244h-0.105h-0.21c-0.386-0.071-0.841-0.071-1.226-0.071c-2.522,0-4.134,0.641-5.113,1.636
		c-1.017,0.962-1.227,2.171-1.227,3.024c0,0.711,0.141,1.245,0.176,1.28c0.104,0.391,0.42,0.604,0.84,0.604
		c0.069,0,0.14,0,0.246-0.036c0.42-0.142,0.664-0.604,0.56-1.102c-0.035-0.143-0.104-0.392-0.104-0.747
		c0-0.569,0.139-1.245,0.699-1.814c0.561-0.568,1.682-1.103,3.924-1.103c0.314,0,0.664,0,1.051,0.071
		c0.104,0.463,0.175,0.961,0.175,1.459c0,3.521-2.837,6.401-6.304,6.401c-3.469,0-6.306-2.881-6.306-6.401
		c0-2.49,1.366-4.589,3.397-5.691c0.105-0.036,0.176-0.072,0.281-0.143c0.14-0.106,0.279-0.249,0.314-0.428
		c0.175-0.354,0.035-0.781-0.28-1.03c-1.051-0.747-1.786-2.028-1.786-3.45c0-2.383,1.892-4.27,4.202-4.27
		c2.312,0,4.203,1.887,4.203,4.27c0,0.462,0.386,0.853,0.841,0.853c0.49,0,0.875-0.391,0.875-0.853c0-3.344-2.66-6.011-5.919-6.011
		c-3.257,0-5.919,2.667-5.919,6.011c0,1.529,0.561,2.952,1.541,4.019C210.551,116.77,209.186,119.26,209.186,121.999z
		 M181.447,114.422c3.152,0,5.884,2.383,6.444,5.656h-12.994C175.528,116.77,178.226,114.422,181.447,114.422z M181.447,130.144
		c2.907,0,5.464-1.564,6.935-3.948c0.245-0.427,0.105-0.925-0.281-1.21c-0.35-0.213-0.875-0.142-1.12,0.285
		c-1.156,1.956-3.258,3.166-5.534,3.166c-3.537,0-6.479-2.882-6.655-6.687h14.08c0.455,0,0.841-0.321,0.841-0.783v-0.107v-0.034
		c-0.351-4.554-3.853-8.11-8.266-8.11c-4.623,0-8.336,3.913-8.336,8.75C173.111,126.23,176.825,130.144,181.447,130.144z
		 M158.437,129.29c0,0.498,0.385,0.854,0.876,0.854c0.42,0,0.805-0.355,0.805-0.854v-7.647c0-0.071,0-0.142,0.07-0.285
		c0.245-0.711,0.911-2.489,2.067-4.055c1.19-1.565,2.732-2.845,4.973-2.845c0.455,0,0.841-0.392,0.841-0.854
		c0-0.498-0.386-0.853-0.841-0.853c-3.292,0-5.569,2.205-6.865,4.268c-0.105,0.143-0.175,0.284-0.245,0.427v-3.842
		c0-0.498-0.385-0.853-0.805-0.853c-0.491,0-0.876,0.354-0.876,0.853V129.29z M140.75,128.437c-3.502,0-6.444-3.095-6.444-7.008
		c0-3.912,2.942-7.042,6.444-7.042c3.538,0,6.445,3.13,6.445,7.042C147.194,125.342,144.288,128.437,140.75,128.437z
		 M148.035,112.715c-0.455,0-0.84,0.355-0.84,0.854v2.562c-1.471-2.063-3.818-3.415-6.445-3.415c-4.518,0-8.125,3.948-8.125,8.714
		c0,4.767,3.607,8.715,8.125,8.715c2.627,0,4.974-1.387,6.445-3.45v2.597c0,0.463,0.385,0.854,0.84,0.854
		c0.456,0,0.841-0.391,0.841-0.854v-15.722C148.875,113.07,148.491,112.715,148.035,112.715z M104.5,117.588L104.5,117.588
		c0,6.936,5.709,12.556,12.749,12.556c3.012,0,5.779-1.032,7.915-2.703c0.385-0.285,0.455-0.925,0.105-1.245
		c-0.245-0.427-0.805-0.497-1.226-0.214c-1.821,1.565-4.203,2.419-6.794,2.419c-6.13,0-11.033-4.873-11.033-10.813
		c0-6.082,4.903-10.955,11.033-10.955c2.591,0,4.973,0.925,6.864,2.418c0.351,0.285,0.911,0.249,1.191-0.177
		c0.315-0.321,0.245-0.925-0.14-1.245c-2.136-1.672-4.903-2.739-7.915-2.739C110.209,104.925,104.5,110.51,104.5,117.588z"/>
	<path fill="#1A2542" d="M394.119,84.469V49.82h6.503c9.596,0,17.271,7.782,17.324,17.271c-0.053,9.595-7.729,17.271-17.324,17.378
		H394.119z M392.787,85.107c0,0.373,0.267,0.693,0.693,0.693h0.053h7.089c10.343,0,18.657-8.369,18.657-18.71
		c0-10.234-8.314-18.604-18.657-18.604h-7.089h-0.053c-0.427,0-0.693,0.32-0.693,0.693V85.107z M340.868,67.838V49.82h10.288
		c4.957,0,9.008,4.052,9.008,9.062c0,5.011-3.998,8.902-8.901,8.956h-0.106H340.868z M360.537,83.775
		c0.533,1.066,1.387,1.439,1.919,1.439c0.268,0,0.428,0,0.48-0.107c0.373-0.053,0.533-0.479,0.427-0.799
		c-0.054-0.32-0.479-0.533-0.8-0.479h-0.107c-0.053,0-0.318,0.106-0.799-0.641c-0.373-0.746-0.8-2.397-0.8-5.437
		c0-4.104-2.505-6.663-4.85-7.995c-0.641-0.374-1.28-0.693-1.919-0.96c4.316-1.227,7.462-5.17,7.462-9.915
		c0-5.756-4.691-10.395-10.395-10.395h-10.82h-0.054h-0.054c-0.373,0-0.693,0.32-0.693,0.693v35.927c0,0.373,0.32,0.693,0.693,0.693
		c0.374,0,0.64-0.32,0.64-0.693V69.224h10.128c0,0,0.533,0.053,1.387,0.319c1.173,0.427,2.984,1.12,4.477,2.452
		c1.493,1.333,2.666,3.145,2.666,5.757C359.525,80.951,359.898,82.71,360.537,83.775 M275.57,67.198L275.57,67.198
		c0-9.915,7.57-17.857,16.738-17.857c9.115,0,16.684,7.942,16.738,17.857c-0.055,9.86-7.623,17.75-16.738,17.856
		C283.141,84.948,275.57,77.059,275.57,67.198 M274.131,67.198L274.131,67.198c0.055,10.714,8.104,19.296,18.178,19.296
		c10.075,0,18.124-8.582,18.229-19.296c-0.105-10.661-8.154-19.243-18.229-19.243C282.234,47.955,274.186,56.537,274.131,67.198
		 M225.412,85.107c0,0.373,0.266,0.693,0.586,0.693c0.426,0,0.692-0.32,0.692-0.693V67.784h16.951c0.373,0,0.639-0.267,0.639-0.693
		c0-0.319-0.266-0.639-0.639-0.639H226.69V49.82h19.243c0.373,0,0.639-0.267,0.639-0.64s-0.266-0.693-0.639-0.693h-19.775h-0.054
		h-0.106c-0.32,0-0.586,0.32-0.586,0.693V85.107z M166.403,85.641c0.16,0.107,0.267,0.16,0.427,0.16c0.213,0,0.373-0.16,0.533-0.266
		l12.526-17.219l12.58,17.219c0.16,0.105,0.373,0.266,0.533,0.266s0.267-0.053,0.427-0.16c0.266-0.266,0.319-0.639,0.16-0.906
		l-12.847-17.536l12.847-17.591c0.159-0.267,0.106-0.692-0.16-0.906c-0.32-0.214-0.747-0.16-0.96,0.106l-12.58,17.217
		l-12.526-17.217c-0.213-0.267-0.693-0.32-0.96-0.106c-0.32,0.214-0.32,0.64-0.106,0.906l12.793,17.591l-12.793,17.536
		C166.083,85.002,166.083,85.375,166.403,85.641 M105.689,67.198L105.689,67.198c0-9.915,7.569-17.857,16.738-17.857
		c9.115,0,16.684,7.942,16.737,17.857c-0.053,9.86-7.622,17.75-16.737,17.856C113.258,84.948,105.689,77.059,105.689,67.198
		 M104.25,67.198L104.25,67.198c0.053,10.714,8.102,19.296,18.177,19.296c10.074,0,18.123-8.582,18.23-19.296
		c-0.107-10.661-8.156-19.243-18.23-19.243C112.353,47.955,104.304,56.537,104.25,67.198"/>
	<path fill="#1A2542" d="M87.12,79.51c-0.889,2.059-2.287,3.88-4.182,5.252c-5.43,3.941-13.087,2.904-18.239-2.09
		c3.792,13.99,1.231,27.478-8.045,35.129c-11.58,9.546-30.092,7.089-45.496-4.708c13.856,18.794,40.299,22.925,59.23,9.188
		C84.272,112.201,90.264,95.301,87.12,79.51"/>
	<path fill="#1A2542" d="M0.819,98.841C1.708,96.78,3.108,94.962,5,93.584c5.431-3.936,13.087-2.9,18.243,2.092
		c-3.794-13.992-1.236-27.479,8.043-35.126c11.58-9.549,30.092-7.089,45.494,4.71c-13.854-18.796-40.297-22.932-59.228-9.19
		C3.664,66.146-2.327,83.046,0.819,98.841"/>
	<path fill="#ED6E1C" d="M55.705,89.175c0,6.479-5.254,11.732-11.734,11.732c-6.479,0-11.735-5.253-11.735-11.732
		c0-6.481,5.256-11.736,11.735-11.736C50.451,77.438,55.705,82.693,55.705,89.175"/>
</g>
</svg>
