<svg xmlns="http://www.w3.org/2000/svg" width="1080.4" height="283.5" viewBox="0 0 1080.4 283.5"><path fill="#F39200" d="M114.6 21.7c5.2 7.6 13.4 18.2 24.2 15.4 6.9-1 12.3-6.5 18.9-7.2 1.4.4 3 1.7 4.4 3.5s.3 11.3 13 14.8 34.9 3.8 39.4 17 7.2 9.4 8.6 10.3c1.4.9 30.4-3.9 34.1 18.7 1 13.3 5.6 27.2 2.8 40.2-31.8 67.4 16.7 21.1 49.1 103.7-21.6-68.1-62-48.8-45-105.1 0 0 9.6-27.1 3.8-41.7-8-27.6-38.2-15.3-43-22.1s.1-8.7-6.4-16.3c-6.4-7.6-33.8 1.7-43.8-7.8-10.1-9.6-9.1-32.3-26.9-20-5.4 5.1-16.1 11-20.7 6.2-4.5-4.8.5-2.2-5.9-15.8C114.6 1.9 97.1-3.8 84 2.6c-8.9 5.6-16.9 12.9-26.9 16.7l.4 1.1c24.3-7.7 51.9-6.3 57.1 1.3z"/><path fill="#F39200" d="M330.1 265.7c-1.9-2.7-7.1-6.3-13.7-10.3 1.5-10.1-4.3-24.3-6.3-30.7-.3 3.1 1.9 20.4-2.2 28.3-7.1-4.2-9.3-4.5-18-15.7-8.7-11.1-40.7-46.5-56.4-61.4-5.4-24.7-6.8-52.8-.2-72l-1.5-1.5c-12.1 21.1-10.1 45.7-3.1 69-11.4-10.5-23.6-20.6-36.5-30-11-19.3-16.5-41.9-22.3-63.3l-2.7.3c2.3 22 11.1 43 23.3 61.7-8.3-6-29.9-19.6-31.5-20.6-1-3.8-2.2-8.1-3.8-13.8-6.2-18-17-33.3-24.2-51l-3.4.4c6.3 22.5 20.5 41.9 29.6 63.4-29.3-16.9-61.2-30.1-95.4-37.4l-.1.5c34.1 7.7 65.4 22.9 94.5 41.9-22.4 2.7-44.9 3.5-67.4 4.8l-.6 2.9c23.3 3.5 46.4-2.3 69.3-6.8.8.6 34.3 24.6 48.9 36.9.6.7 1.1 1.3 1.7 2l.3-.3c6.4 5.4 12.7 10.9 18.9 16.4.3.3.6.6 1 .9-26.6-15.7-60.3-11.7-89.1-.6l1.1 3c29.9-7.8 65.5-11 93.6 3.8 2.9 7.7 6.2 15.1 9.5 22l.5-.2c-2.7-5.9-5.1-12.8-7.3-20.3.2.1.5.3.7.4 13.1 11.7 68.7 68.3 67.7 68.4 2.6 13.5-49.7-1.3-69.2-1.3s-21.8-1.5-31.4-3.7-14.3-6.4-11.7-12.1c2.6-5.7-3.2-11.5-3.7-18.1s22-18.8-12.3-8.4c-33.2 10.1-66.3-8.2-66.6-16.1-.4-7.9 3.1-18.3-2.3-30.4-5.4-12.1-35.4-11.8-35.4-11.8s-65.4-3.7-38-39.3c-.4-12.2-15.1-22.1-23.5-34.1-6.4-8.6-3.6-27-1.8-31.8s3.1-4.7 7.1-9.9 34.5-12.2 60.5-7l.1-.5C48 14.7 25.4 20 11.7 40.5-2.1 61.1-2.6 71.9 4.4 85.2c4.5 7.7 15.9 13.7 17.8 18.9 2 5.2 4.2 9.4 7.3 10.3-29.6 19.4 13.3 45 29.6 45.9 16.3.9 36.3 12 41.8 12.5s8.5 10.4 3.7 17.1 6.3 17.8 11.8 20.6c6.3 3.2 37.3 16 52.6 9s19.3-4.8 17.4 1.5 3.9 13.6 3.6 17.9-4 2.6 1 11.2c5 8.7 32 6.8 42.8 9.1 10.7 2.3 80.3 10.3 77.1 6s-3.9-5.6 1.6-1.5c5.5 4.2 9.9 7.3 11.7 9.6 5.9 5.2 22.2 10.3 22.2 10.3-7.9-3.4-9.9-13-16.3-17.9z"/><path fill="#564B50" d="M352.8 75.4c-1.2 2.1-2.8 8.7-5 19.9s-3.3 20.6-3.3 28.1c4.2-.7 8.5-1.2 12.9-1.7l19.1-2.2c3-.4 7.3-1.4 12.7-2.8 5.5-1.5 9.3-2.2 11.3-2.2 7.2 0 10.7 2.9 10.7 8.7 0 1.2-1 2.6-3 4.4s-4.7 3-8.1 3.7-11.5 1.8-24.3 3.2c-15.8 1.8-25.1 3.2-28.1 4.1-2.9.9-4.7 1.9-5.2 2.8-.5.9-1.1 5.3-1.7 13.2s-.9 14.2-.9 19.1l.4 11.3c0 6.2-2.2 9.3-6.7 9.3-2.8 0-5.4-1.1-7.7-3.2-2.4-2.1-3.5-5-3.5-8.5 0-14.1 3.5-43.7 10.4-88.9 1.6-10.5 2.5-16.2 2.5-17 0-1.2-.4-2.9-1.1-5.3-1-3-1.5-5-1.5-6.2 0-1.6.9-3.4 2.7-5.3 1.8-1.9 3.5-2.9 5.2-2.9l12 1.4c3.7 0 10.6-.6 20.6-1.8 17.1-2.1 28.8-3.1 35.2-3.1 5.6 0 9.6.9 12 2.5 2.4 1.7 3.6 3.4 3.6 5 0 2.9-1 5.4-3 7.5s-4.1 3.1-6.3 3.1c-1 0-2.2-.1-3.4-.4-6.6-1.1-11.6-1.6-15.1-1.6-6.5 0-14.9.6-25.2 1.8-10.4 1.2-16.5 2.5-18.2 4zM490.1 153.1c-8.5 11.4-16.9 19.9-25.2 25.6-8.3 5.7-15.9 8.5-22.8 8.5-4.7 0-8.7-2-12.1-5.9s-5.1-9-5.1-15.2c0-15.9 7.1-33.1 21.4-51.5C460.5 96.2 474.7 87 488.8 87c5.1 0 8.9 2.9 11.4 8.7.8 1.9 2 2.9 3.7 2.9 4.8 0 7.3 1.9 7.3 5.6 0 1.9-.3 4.5-.9 7.7-3.3 17.9-4.9 30.5-4.9 37.8 0 14.7 2.8 23.5 8.4 26.4 2.7 1.5 4 3.2 4 5.4 0 1.9-1.3 3.8-3.9 5.7-2.6 1.9-5.1 2.9-7.5 2.9-4.7 0-8.5-3.2-11.5-9.6-3.3-6.3-4.8-15.5-4.8-27.4zm-5.6-51.2c-8 0-17.3 7.5-27.9 22.5s-15.9 27.4-15.9 37.3c0 7 2.3 10.5 6.9 10.5 6.7 0 15.9-6.7 27.7-20.2s17.7-25.8 17.7-37.1c.1-8.6-2.8-13-8.5-13zM569.9 32.3c4.4 0 6.5 2.8 6.5 8.4 0 5-2.6 16.8-7.9 35.5-3.3 11.8-5.9 24.7-7.7 38.9s-2.7 25.3-2.7 33.4c0 10 .6 19.9 1.9 29.8.2 1.9.4 3.2.4 4.1 0 3-1 5.6-3.1 7.8s-4.2 3.3-6.5 3.3c-3.2 0-5.4-2-6.7-6-1.2-4-1.9-10.5-1.9-19.4 0-20.3 2.4-45.5 7.3-75.5s8.8-47.6 11.6-52.7c2.9-5.1 5.8-7.6 8.8-7.6zM623.2 32.3c4.4 0 6.5 2.8 6.5 8.4 0 5-2.6 16.8-7.9 35.5-3.3 11.8-5.9 24.7-7.7 38.9s-2.7 25.3-2.7 33.4c0 10 .6 19.9 1.9 29.8.2 1.9.4 3.2.4 4.1 0 3-1 5.6-3.1 7.8s-4.2 3.3-6.5 3.3c-3.2 0-5.4-2-6.7-6-1.2-4-1.9-10.5-1.9-19.4 0-20.3 2.4-45.5 7.3-75.5s8.8-47.6 11.6-52.7c2.9-5.1 5.8-7.6 8.8-7.6zM731.8 111.8c0 1 .6 1.6 1.8 1.9 6.5 1.9 12.3 5.5 17.4 11 5 5.4 7.5 11.9 7.5 19.3 0 11.5-7.3 23.3-22 35.4-14.7 12.1-30.1 18.2-46.3 18.2-4.5 0-8.1-.6-10.7-1.8-2.6-1.2-3.9-2.6-3.9-4.1 0-7.6 5.4-11.5 16.2-11.5 1.5 0 3.9.1 7 .2 3.2.1 6.9-.7 11-2.3 4.2-1.7 8.2-3.8 12.1-6.5 3.9-2.6 7.3-5.4 10.1-8.2s5.1-5.8 6.8-9 2.6-6.3 2.6-9.5c0-5.2-2.3-9.9-6.8-13.9-4.5-4.1-10.5-6.1-18.1-6.1-1.2 0-4.1 1-8.6 2.9-4.5 2-7.5 3-8.9 3-4.7 0-7.7-.6-8.9-1.8s-1.8-3.4-1.8-6.5c0-1.9 5.1-4.9 15.4-9.1 8.5-3.4 16.8-8.9 24.9-16.6 8-7.7 12-14.2 12-19.6 0-3.7-1.5-6.6-4.5-8.8-3-2.2-7.3-3.3-12.7-3.3-9 0-18 1.1-26.9 3.3-8.9 2.2-13.8 4.3-14.7 6.2-.9 1.9-3.4 16.6-7.4 44.1-4.1 27.4-6.1 43.3-6.1 47.6 0 4.2.1 8.2.3 11.9s-.5 6.8-2 9.5c-1.5 2.6-4 4-7.6 4-3.3 0-5.8-1.3-7.6-3.9-1.8-2.6-2.7-5.8-2.7-9.8 0-1 .3-2.6.8-4.7 3.2-13 6.1-29.7 8.9-50 2.8-20.3 4.2-32 4.2-35.2 0-2.5-.4-4.4-1-5.6-.7-1.2-2.3-1.8-4.8-1.8-1 0-1.9 0-2.9.1-.9.1-1.9-.5-2.8-1.7-.9-1.2-1.4-2.7-1.4-4.4 0-5.3 8.6-10.6 25.7-15.7 17.2-5.2 34.6-7.7 52.3-7.7 9.1 0 16.5 2.4 22.3 7.3s8.7 10.6 8.7 17.1c0 4.9-2.5 10.6-7.4 17.1-4.7 6.6-11.3 12.9-19.5 19zM842.7 153.1c-8.5 11.4-16.9 19.9-25.2 25.6-8.3 5.7-15.9 8.5-22.8 8.5-4.7 0-8.7-2-12.1-5.9-3.4-3.9-5.1-9-5.1-15.2 0-15.9 7.1-33.1 21.4-51.5C813.1 96.2 827.3 87 841.4 87c5.1 0 8.9 2.9 11.4 8.7.8 1.9 2 2.9 3.7 2.9 4.8 0 7.3 1.9 7.3 5.6 0 1.9-.3 4.5-.9 7.7-3.3 17.9-4.9 30.5-4.9 37.8 0 14.7 2.8 23.5 8.4 26.4 2.7 1.5 4 3.2 4 5.4 0 1.9-1.3 3.8-3.9 5.7-2.6 1.9-5.1 2.9-7.5 2.9-4.7 0-8.5-3.2-11.5-9.6-3.3-6.3-4.8-15.5-4.8-27.4zm-5.5-51.2c-8 0-17.3 7.5-27.9 22.5-10.6 15-15.9 27.4-15.9 37.3 0 7 2.3 10.5 6.9 10.5 6.7 0 15.9-6.7 27.7-20.2s17.7-25.8 17.7-37.1c0-8.6-2.8-13-8.5-13zM915.6 191.4c-9.1 0-16.1-2.6-21-7.8s-7.3-12.5-7.3-21.9c0-15.8 6.3-32.5 18.8-50.1s24.2-26.3 35-26.3c4.9 0 9.1 2.7 12.7 8 3.5 5.3 5.3 10.9 5.3 16.9 0 3.6-.8 6.7-2.3 9.2-1.5 2.6-3.1 3.9-4.7 3.9-3.5 0-6-3.5-7.5-10.6-1.6-7.6-4-11.5-7.1-11.5-6.3 0-13.8 7.5-22.4 22.5-8.6 15-12.9 27.6-12.9 37.9s5.8 15.5 17.6 15.5c8.9 0 19.4-4.2 31.5-12.5 4.2-3 7.4-4.5 9.4-4.5 2.1 0 3.1 1.2 3.1 3.5 0 4.6-5.4 10.4-16.3 17.4-10.9 6.9-21.5 10.4-31.9 10.4zM1002.8 143.7c.8-1 6.2-5.9 16.3-14.6 9.5-8.3 16.2-14.3 19.9-18.1 14-14 24.1-21 30.2-21 4.7 0 7.1 2.3 7.1 6.8 0 5.2-2.3 8.9-7 11.4-6.1 3.1-14.2 8.2-24.3 15.4-10.1 7.2-15.2 12.3-15.2 15.2 0 1.2 3.6 5.7 10.7 13.6 7.2 7.9 13.3 13.6 18.6 17.4 5.2 3.7 10.3 5.6 15.2 5.6l3-.1c2.1-.1 3.2.8 3.2 2.8 0 2.7-1.7 5.4-5 8.1-3.3 2.8-7.7 4.1-13.2 4.1-3.5 0-7.1-1.2-10.7-3.7s-10-9.1-19.2-19.9c-7.3-8.9-11.9-14.2-13.7-16-1.8-1.7-3.3-2.6-4.5-2.6-.7 0-2.8 1.6-6.4 4.7-3.6 3.2-5.5 5.5-5.9 7.2-.3 1.6-.5 7.9-.5 18.7v4.3c0 2.2-1.1 4.2-3.2 6-2.1 1.8-4.4 2.6-6.9 2.6s-4.5-.7-6-2.2-2.2-3-2.2-4.6c0-2.2.8-7.3 2.5-15.5 2.3-11.7 4.4-27.4 6.4-47 4.5-46.4 7.9-72.6 10.4-78.7 2.4-6.1 5.9-9.1 10.4-9.1 1.6 0 2.9.9 4 2.5 1.1 1.7 1.6 3.9 1.6 6.5 0 4.9-2.1 17.7-6.3 38.6a575.6 575.6 0 00-9.3 61.6z"/><path fill="#F39200" d="M1011.3 238.2s-153.8 3.1-319.6 0c-165.7-3.1-286.8 25.6-319.6 0s143.1-14 319.6-14 319.6 14 319.6 14z"/></svg>